<?xml version="1.0" encoding="UTF-8"?>
<svg xmlns="http://www.w3.org/2000/svg" xmlns:xlink="http://www.w3.org/1999/xlink" width="317" height="340" viewBox="0 0 317 340">
<defs>
<g>
<g id="glyph-0-0">
<path d="M 6.265625 0.21875 C 5.484375 0.21875 4.765625 0.0820312 4.109375 -0.1875 C 3.453125 -0.46875 2.890625 -0.867188 2.421875 -1.390625 C 1.960938 -1.910156 1.597656 -2.550781 1.328125 -3.3125 C 1.066406 -4.082031 0.9375 -4.945312 0.9375 -5.90625 C 0.9375 -6.851562 1.070312 -7.703125 1.34375 -8.453125 C 1.613281 -9.210938 1.988281 -9.851562 2.46875 -10.375 C 2.945312 -10.90625 3.519531 -11.3125 4.1875 -11.59375 C 4.851562 -11.882812 5.578125 -12.03125 6.359375 -12.03125 C 6.765625 -12.03125 7.132812 -11.984375 7.46875 -11.890625 C 7.8125 -11.804688 8.125 -11.695312 8.40625 -11.5625 C 8.695312 -11.425781 8.953125 -11.269531 9.171875 -11.09375 C 9.390625 -10.914062 9.582031 -10.738281 9.75 -10.5625 L 8.921875 -9.59375 C 8.628906 -9.90625 8.285156 -10.164062 7.890625 -10.375 C 7.492188 -10.59375 6.992188 -10.703125 6.390625 -10.703125 C 5.785156 -10.703125 5.242188 -10.59375 4.765625 -10.375 C 4.285156 -10.15625 3.878906 -9.835938 3.546875 -9.421875 C 3.210938 -9.003906 2.953125 -8.5 2.765625 -7.90625 C 2.578125 -7.320312 2.484375 -6.664062 2.484375 -5.9375 C 2.484375 -5.195312 2.566406 -4.53125 2.734375 -3.9375 C 2.910156 -3.34375 3.164062 -2.832031 3.5 -2.40625 C 3.832031 -1.988281 4.238281 -1.664062 4.71875 -1.4375 C 5.207031 -1.207031 5.769531 -1.09375 6.40625 -1.09375 C 6.820312 -1.09375 7.21875 -1.15625 7.59375 -1.28125 C 7.976562 -1.40625 8.289062 -1.578125 8.53125 -1.796875 L 8.53125 -4.875 L 6.03125 -4.875 L 6.03125 -6.125 L 9.90625 -6.125 L 9.90625 -1.15625 C 9.519531 -0.757812 9.015625 -0.429688 8.390625 -0.171875 C 7.765625 0.0859375 7.054688 0.21875 6.265625 0.21875 Z M 6.265625 0.21875 "/>
</g>
<g id="glyph-0-1">
<path d="M 1.46875 0 L 1.46875 -8.75 L 2.703125 -8.75 L 2.828125 -7.15625 L 2.875 -7.15625 C 3.175781 -7.707031 3.539062 -8.144531 3.96875 -8.46875 C 4.394531 -8.800781 4.859375 -8.96875 5.359375 -8.96875 C 5.710938 -8.96875 6.023438 -8.90625 6.296875 -8.78125 L 6.015625 -7.484375 C 5.867188 -7.535156 5.734375 -7.570312 5.609375 -7.59375 C 5.492188 -7.613281 5.347656 -7.625 5.171875 -7.625 C 4.796875 -7.625 4.40625 -7.472656 4 -7.171875 C 3.601562 -6.878906 3.253906 -6.359375 2.953125 -5.609375 L 2.953125 0 Z M 1.46875 0 "/>
</g>
<g id="glyph-0-2">
<path d="M 4.875 0.21875 C 4.332031 0.21875 3.816406 0.117188 3.328125 -0.078125 C 2.847656 -0.285156 2.421875 -0.582031 2.046875 -0.96875 C 1.679688 -1.363281 1.382812 -1.847656 1.15625 -2.421875 C 0.9375 -2.992188 0.828125 -3.640625 0.828125 -4.359375 C 0.828125 -5.085938 0.9375 -5.734375 1.15625 -6.296875 C 1.382812 -6.867188 1.679688 -7.351562 2.046875 -7.75 C 2.421875 -8.15625 2.847656 -8.457031 3.328125 -8.65625 C 3.816406 -8.863281 4.332031 -8.96875 4.875 -8.96875 C 5.414062 -8.96875 5.925781 -8.863281 6.40625 -8.65625 C 6.894531 -8.457031 7.328125 -8.15625 7.703125 -7.75 C 8.078125 -7.351562 8.375 -6.867188 8.59375 -6.296875 C 8.8125 -5.734375 8.921875 -5.085938 8.921875 -4.359375 C 8.921875 -3.640625 8.8125 -2.992188 8.59375 -2.421875 C 8.375 -1.847656 8.078125 -1.363281 7.703125 -0.96875 C 7.328125 -0.582031 6.894531 -0.285156 6.40625 -0.078125 C 5.925781 0.117188 5.414062 0.21875 4.875 0.21875 Z M 4.875 -1.015625 C 5.25 -1.015625 5.59375 -1.09375 5.90625 -1.25 C 6.21875 -1.414062 6.484375 -1.644531 6.703125 -1.9375 C 6.921875 -2.226562 7.085938 -2.578125 7.203125 -2.984375 C 7.328125 -3.390625 7.390625 -3.847656 7.390625 -4.359375 C 7.390625 -4.859375 7.328125 -5.316406 7.203125 -5.734375 C 7.085938 -6.148438 6.921875 -6.503906 6.703125 -6.796875 C 6.484375 -7.097656 6.21875 -7.328125 5.90625 -7.484375 C 5.59375 -7.648438 5.25 -7.734375 4.875 -7.734375 C 4.5 -7.734375 4.15625 -7.648438 3.84375 -7.484375 C 3.539062 -7.328125 3.273438 -7.097656 3.046875 -6.796875 C 2.828125 -6.503906 2.65625 -6.148438 2.53125 -5.734375 C 2.414062 -5.316406 2.359375 -4.859375 2.359375 -4.359375 C 2.359375 -3.847656 2.414062 -3.390625 2.53125 -2.984375 C 2.65625 -2.578125 2.828125 -2.226562 3.046875 -1.9375 C 3.273438 -1.644531 3.539062 -1.414062 3.84375 -1.25 C 4.15625 -1.09375 4.5 -1.015625 4.875 -1.015625 Z M 4.875 -1.015625 "/>
</g>
<g id="glyph-0-3">
<path d="M 4.03125 0.21875 C 3.09375 0.21875 2.410156 -0.0664062 1.984375 -0.640625 C 1.554688 -1.222656 1.34375 -2.078125 1.34375 -3.203125 L 1.34375 -8.75 L 2.84375 -8.75 L 2.84375 -3.40625 C 2.84375 -2.570312 2.972656 -1.972656 3.234375 -1.609375 C 3.492188 -1.242188 3.910156 -1.0625 4.484375 -1.0625 C 4.941406 -1.0625 5.34375 -1.175781 5.6875 -1.40625 C 6.03125 -1.644531 6.414062 -2.019531 6.84375 -2.53125 L 6.84375 -8.75 L 8.3125 -8.75 L 8.3125 0 L 7.09375 0 L 6.96875 -1.375 L 6.90625 -1.375 C 6.5 -0.882812 6.070312 -0.492188 5.625 -0.203125 C 5.175781 0.078125 4.644531 0.21875 4.03125 0.21875 Z M 4.03125 0.21875 "/>
</g>
<g id="glyph-0-4">
<path d="M 1.46875 3.6875 L 1.46875 -8.75 L 2.703125 -8.75 L 2.828125 -7.734375 L 2.875 -7.734375 C 3.269531 -8.078125 3.703125 -8.367188 4.171875 -8.609375 C 4.648438 -8.847656 5.148438 -8.96875 5.671875 -8.96875 C 6.234375 -8.96875 6.726562 -8.859375 7.15625 -8.640625 C 7.59375 -8.429688 7.953125 -8.128906 8.234375 -7.734375 C 8.523438 -7.347656 8.742188 -6.882812 8.890625 -6.34375 C 9.046875 -5.800781 9.125 -5.1875 9.125 -4.5 C 9.125 -3.757812 9.019531 -3.097656 8.8125 -2.515625 C 8.613281 -1.929688 8.335938 -1.429688 7.984375 -1.015625 C 7.640625 -0.609375 7.238281 -0.300781 6.78125 -0.09375 C 6.332031 0.113281 5.851562 0.21875 5.34375 0.21875 C 4.9375 0.21875 4.53125 0.128906 4.125 -0.046875 C 3.726562 -0.234375 3.328125 -0.484375 2.921875 -0.796875 L 2.953125 0.734375 L 2.953125 3.6875 Z M 5.09375 -1.03125 C 5.457031 -1.03125 5.789062 -1.109375 6.09375 -1.265625 C 6.394531 -1.429688 6.65625 -1.660156 6.875 -1.953125 C 7.101562 -2.242188 7.28125 -2.601562 7.40625 -3.03125 C 7.53125 -3.46875 7.59375 -3.957031 7.59375 -4.5 C 7.59375 -4.976562 7.550781 -5.414062 7.46875 -5.8125 C 7.382812 -6.207031 7.25 -6.546875 7.0625 -6.828125 C 6.875 -7.109375 6.632812 -7.328125 6.34375 -7.484375 C 6.050781 -7.640625 5.703125 -7.71875 5.296875 -7.71875 C 4.921875 -7.71875 4.539062 -7.613281 4.15625 -7.40625 C 3.78125 -7.207031 3.378906 -6.914062 2.953125 -6.53125 L 2.953125 -1.9375 C 3.347656 -1.601562 3.726562 -1.367188 4.09375 -1.234375 C 4.46875 -1.097656 4.800781 -1.03125 5.09375 -1.03125 Z M 5.09375 -1.03125 "/>
</g>
<g id="glyph-0-5">
<path d="M 4.890625 0.21875 C 4.066406 0.21875 3.300781 0.0625 2.59375 -0.25 C 1.882812 -0.5625 1.269531 -0.988281 0.75 -1.53125 L 1.65625 -2.578125 C 2.070312 -2.128906 2.566406 -1.769531 3.140625 -1.5 C 3.710938 -1.226562 4.300781 -1.09375 4.90625 -1.09375 C 5.6875 -1.09375 6.289062 -1.269531 6.71875 -1.625 C 7.15625 -1.976562 7.375 -2.445312 7.375 -3.03125 C 7.375 -3.320312 7.320312 -3.570312 7.21875 -3.78125 C 7.125 -4 6.988281 -4.179688 6.8125 -4.328125 C 6.632812 -4.472656 6.425781 -4.601562 6.1875 -4.71875 C 5.945312 -4.84375 5.691406 -4.972656 5.421875 -5.109375 L 3.71875 -5.84375 C 3.445312 -5.96875 3.164062 -6.113281 2.875 -6.28125 C 2.59375 -6.445312 2.335938 -6.648438 2.109375 -6.890625 C 1.878906 -7.128906 1.691406 -7.414062 1.546875 -7.75 C 1.398438 -8.082031 1.328125 -8.460938 1.328125 -8.890625 C 1.328125 -9.335938 1.421875 -9.75 1.609375 -10.125 C 1.796875 -10.507812 2.050781 -10.84375 2.375 -11.125 C 2.707031 -11.414062 3.097656 -11.640625 3.546875 -11.796875 C 4.003906 -11.953125 4.503906 -12.03125 5.046875 -12.03125 C 5.753906 -12.03125 6.40625 -11.894531 7 -11.625 C 7.601562 -11.351562 8.113281 -11 8.53125 -10.5625 L 7.71875 -9.59375 C 7.363281 -9.9375 6.96875 -10.207031 6.53125 -10.40625 C 6.09375 -10.601562 5.597656 -10.703125 5.046875 -10.703125 C 4.378906 -10.703125 3.84375 -10.550781 3.4375 -10.25 C 3.039062 -9.945312 2.84375 -9.523438 2.84375 -8.984375 C 2.84375 -8.691406 2.898438 -8.445312 3.015625 -8.25 C 3.128906 -8.050781 3.28125 -7.875 3.46875 -7.71875 C 3.664062 -7.570312 3.878906 -7.441406 4.109375 -7.328125 C 4.335938 -7.210938 4.570312 -7.109375 4.8125 -7.015625 L 6.484375 -6.296875 C 6.816406 -6.148438 7.132812 -5.984375 7.4375 -5.796875 C 7.738281 -5.617188 7.992188 -5.40625 8.203125 -5.15625 C 8.421875 -4.90625 8.59375 -4.613281 8.71875 -4.28125 C 8.84375 -3.957031 8.90625 -3.582031 8.90625 -3.15625 C 8.90625 -2.6875 8.8125 -2.242188 8.625 -1.828125 C 8.445312 -1.421875 8.179688 -1.066406 7.828125 -0.765625 C 7.484375 -0.460938 7.0625 -0.222656 6.5625 -0.046875 C 6.070312 0.128906 5.515625 0.21875 4.890625 0.21875 Z M 4.890625 0.21875 "/>
</g>
<g id="glyph-0-6">
<path d="M 4.234375 0.21875 C 3.765625 0.21875 3.367188 0.144531 3.046875 0 C 2.734375 -0.144531 2.476562 -0.34375 2.28125 -0.59375 C 2.082031 -0.84375 1.941406 -1.144531 1.859375 -1.5 C 1.773438 -1.863281 1.734375 -2.265625 1.734375 -2.703125 L 1.734375 -7.546875 L 0.4375 -7.546875 L 0.4375 -8.65625 L 1.796875 -8.75 L 1.984375 -11.203125 L 3.21875 -11.203125 L 3.21875 -8.75 L 5.578125 -8.75 L 5.578125 -7.546875 L 3.21875 -7.546875 L 3.21875 -2.6875 C 3.21875 -2.144531 3.316406 -1.722656 3.515625 -1.421875 C 3.710938 -1.128906 4.066406 -0.984375 4.578125 -0.984375 C 4.734375 -0.984375 4.898438 -1.007812 5.078125 -1.0625 C 5.253906 -1.113281 5.414062 -1.164062 5.5625 -1.21875 L 5.84375 -0.109375 C 5.601562 -0.0234375 5.34375 0.046875 5.0625 0.109375 C 4.78125 0.179688 4.503906 0.21875 4.234375 0.21875 Z M 4.234375 0.21875 "/>
</g>
<g id="glyph-0-7">
<path d="M 3.484375 0.21875 C 2.753906 0.21875 2.144531 0.00390625 1.65625 -0.421875 C 1.175781 -0.859375 0.9375 -1.472656 0.9375 -2.265625 C 0.9375 -3.222656 1.359375 -3.957031 2.203125 -4.46875 C 3.054688 -4.976562 4.421875 -5.335938 6.296875 -5.546875 C 6.296875 -5.816406 6.269531 -6.082031 6.21875 -6.34375 C 6.164062 -6.613281 6.070312 -6.847656 5.9375 -7.046875 C 5.800781 -7.253906 5.617188 -7.421875 5.390625 -7.546875 C 5.160156 -7.671875 4.863281 -7.734375 4.5 -7.734375 C 4 -7.734375 3.523438 -7.632812 3.078125 -7.4375 C 2.628906 -7.25 2.234375 -7.035156 1.890625 -6.796875 L 1.3125 -7.828125 C 1.71875 -8.085938 2.210938 -8.34375 2.796875 -8.59375 C 3.390625 -8.84375 4.039062 -8.96875 4.75 -8.96875 C 5.820312 -8.96875 6.597656 -8.640625 7.078125 -7.984375 C 7.554688 -7.328125 7.796875 -6.453125 7.796875 -5.359375 L 7.796875 0 L 6.5625 0 L 6.4375 -1.046875 L 6.390625 -1.046875 C 5.972656 -0.691406 5.519531 -0.390625 5.03125 -0.140625 C 4.550781 0.0976562 4.035156 0.21875 3.484375 0.21875 Z M 3.921875 -0.96875 C 4.335938 -0.96875 4.734375 -1.066406 5.109375 -1.265625 C 5.484375 -1.460938 5.878906 -1.753906 6.296875 -2.140625 L 6.296875 -4.578125 C 5.566406 -4.472656 4.953125 -4.351562 4.453125 -4.21875 C 3.953125 -4.09375 3.550781 -3.9375 3.25 -3.75 C 2.945312 -3.570312 2.722656 -3.367188 2.578125 -3.140625 C 2.441406 -2.910156 2.375 -2.65625 2.375 -2.375 C 2.375 -1.875 2.523438 -1.515625 2.828125 -1.296875 C 3.128906 -1.078125 3.492188 -0.96875 3.921875 -0.96875 Z M 3.921875 -0.96875 "/>
</g>
<g id="glyph-0-8">
<path d="M 5.34375 0.21875 C 4.9375 0.21875 4.515625 0.117188 4.078125 -0.078125 C 3.640625 -0.273438 3.226562 -0.550781 2.84375 -0.90625 L 2.796875 -0.90625 L 2.65625 0 L 1.46875 0 L 1.46875 -12.8125 L 2.953125 -12.8125 L 2.953125 -9.328125 L 2.921875 -7.734375 C 3.316406 -8.085938 3.742188 -8.378906 4.203125 -8.609375 C 4.671875 -8.847656 5.15625 -8.96875 5.65625 -8.96875 C 6.21875 -8.96875 6.710938 -8.859375 7.140625 -8.640625 C 7.578125 -8.429688 7.941406 -8.128906 8.234375 -7.734375 C 8.523438 -7.347656 8.742188 -6.882812 8.890625 -6.34375 C 9.046875 -5.800781 9.125 -5.191406 9.125 -4.515625 C 9.125 -3.773438 9.019531 -3.109375 8.8125 -2.515625 C 8.613281 -1.929688 8.335938 -1.429688 7.984375 -1.015625 C 7.640625 -0.609375 7.238281 -0.300781 6.78125 -0.09375 C 6.332031 0.113281 5.851562 0.21875 5.34375 0.21875 Z M 5.09375 -1.03125 C 5.457031 -1.03125 5.789062 -1.109375 6.09375 -1.265625 C 6.394531 -1.429688 6.65625 -1.660156 6.875 -1.953125 C 7.101562 -2.242188 7.28125 -2.601562 7.40625 -3.03125 C 7.53125 -3.46875 7.59375 -3.957031 7.59375 -4.5 C 7.59375 -4.976562 7.550781 -5.414062 7.46875 -5.8125 C 7.382812 -6.207031 7.25 -6.546875 7.0625 -6.828125 C 6.875 -7.109375 6.632812 -7.328125 6.34375 -7.484375 C 6.050781 -7.640625 5.703125 -7.71875 5.296875 -7.71875 C 4.585938 -7.71875 3.804688 -7.320312 2.953125 -6.53125 L 2.953125 -1.9375 C 3.335938 -1.601562 3.71875 -1.367188 4.09375 -1.234375 C 4.46875 -1.097656 4.800781 -1.03125 5.09375 -1.03125 Z M 5.09375 -1.03125 "/>
</g>
<g id="glyph-0-9">
<path d="M 3.046875 0.21875 C 2.484375 0.21875 2.078125 0.0507812 1.828125 -0.28125 C 1.585938 -0.625 1.46875 -1.117188 1.46875 -1.765625 L 1.46875 -12.8125 L 2.953125 -12.8125 L 2.953125 -1.65625 C 2.953125 -1.414062 2.992188 -1.25 3.078125 -1.15625 C 3.160156 -1.0625 3.253906 -1.015625 3.359375 -1.015625 C 3.410156 -1.015625 3.457031 -1.015625 3.5 -1.015625 C 3.539062 -1.015625 3.601562 -1.023438 3.6875 -1.046875 L 3.890625 0.078125 C 3.796875 0.117188 3.679688 0.148438 3.546875 0.171875 C 3.410156 0.203125 3.242188 0.21875 3.046875 0.21875 Z M 3.046875 0.21875 "/>
</g>
<g id="glyph-0-10">
<path d="M 5.015625 0.21875 C 4.429688 0.21875 3.882812 0.113281 3.375 -0.09375 C 2.863281 -0.300781 2.414062 -0.597656 2.03125 -0.984375 C 1.65625 -1.378906 1.359375 -1.859375 1.140625 -2.421875 C 0.929688 -2.992188 0.828125 -3.640625 0.828125 -4.359375 C 0.828125 -5.078125 0.9375 -5.71875 1.15625 -6.28125 C 1.382812 -6.851562 1.679688 -7.335938 2.046875 -7.734375 C 2.410156 -8.128906 2.828125 -8.429688 3.296875 -8.640625 C 3.765625 -8.859375 4.25 -8.96875 4.75 -8.96875 C 5.300781 -8.96875 5.796875 -8.867188 6.234375 -8.671875 C 6.671875 -8.484375 7.035156 -8.207031 7.328125 -7.84375 C 7.628906 -7.488281 7.859375 -7.054688 8.015625 -6.546875 C 8.171875 -6.046875 8.25 -5.484375 8.25 -4.859375 C 8.25 -4.703125 8.242188 -4.546875 8.234375 -4.390625 C 8.222656 -4.242188 8.207031 -4.117188 8.1875 -4.015625 L 2.28125 -4.015625 C 2.34375 -3.078125 2.632812 -2.332031 3.15625 -1.78125 C 3.675781 -1.238281 4.359375 -0.96875 5.203125 -0.96875 C 5.617188 -0.96875 6.003906 -1.03125 6.359375 -1.15625 C 6.710938 -1.28125 7.050781 -1.445312 7.375 -1.65625 L 7.90625 -0.6875 C 7.519531 -0.445312 7.09375 -0.234375 6.625 -0.046875 C 6.15625 0.128906 5.617188 0.21875 5.015625 0.21875 Z M 2.265625 -5.078125 L 6.953125 -5.078125 C 6.953125 -5.960938 6.757812 -6.632812 6.375 -7.09375 C 6 -7.5625 5.46875 -7.796875 4.78125 -7.796875 C 4.46875 -7.796875 4.171875 -7.734375 3.890625 -7.609375 C 3.609375 -7.492188 3.351562 -7.316406 3.125 -7.078125 C 2.90625 -6.847656 2.71875 -6.5625 2.5625 -6.21875 C 2.414062 -5.882812 2.316406 -5.503906 2.265625 -5.078125 Z M 2.265625 -5.078125 "/>
</g>
<g id="glyph-0-11">
<path d="M 3.78125 0 L 0 -11.8125 L 1.609375 -11.8125 L 3.484375 -5.4375 C 3.703125 -4.726562 3.890625 -4.070312 4.046875 -3.46875 C 4.210938 -2.875 4.410156 -2.226562 4.640625 -1.53125 L 4.71875 -1.53125 C 4.9375 -2.226562 5.128906 -2.875 5.296875 -3.46875 C 5.460938 -4.070312 5.644531 -4.726562 5.84375 -5.4375 L 7.734375 -11.8125 L 9.265625 -11.8125 L 5.53125 0 Z M 3.78125 0 "/>
</g>
<g id="glyph-0-12">
<path d="M 1.46875 0 L 1.46875 -8.75 L 2.953125 -8.75 L 2.953125 0 Z M 2.234375 -10.546875 C 1.941406 -10.546875 1.695312 -10.632812 1.5 -10.8125 C 1.300781 -11 1.203125 -11.226562 1.203125 -11.5 C 1.203125 -11.789062 1.300781 -12.019531 1.5 -12.1875 C 1.695312 -12.363281 1.941406 -12.453125 2.234375 -12.453125 C 2.515625 -12.453125 2.753906 -12.363281 2.953125 -12.1875 C 3.160156 -12.019531 3.265625 -11.789062 3.265625 -11.5 C 3.265625 -11.226562 3.160156 -11 2.953125 -10.8125 C 2.753906 -10.632812 2.515625 -10.546875 2.234375 -10.546875 Z M 2.234375 -10.546875 "/>
</g>
<g id="glyph-0-13">
<path d="M 4.484375 0.21875 C 3.316406 0.21875 2.410156 -0.296875 1.765625 -1.328125 C 1.117188 -2.359375 0.796875 -3.84375 0.796875 -5.78125 C 0.796875 -7.707031 1.117188 -9.175781 1.765625 -10.1875 C 2.410156 -11.195312 3.316406 -11.703125 4.484375 -11.703125 C 5.628906 -11.703125 6.523438 -11.195312 7.171875 -10.1875 C 7.828125 -9.175781 8.15625 -7.707031 8.15625 -5.78125 C 8.15625 -3.84375 7.828125 -2.359375 7.171875 -1.328125 C 6.523438 -0.296875 5.628906 0.21875 4.484375 0.21875 Z M 4.484375 -0.96875 C 4.816406 -0.96875 5.117188 -1.0625 5.390625 -1.25 C 5.660156 -1.4375 5.894531 -1.722656 6.09375 -2.109375 C 6.289062 -2.503906 6.441406 -3.003906 6.546875 -3.609375 C 6.660156 -4.210938 6.71875 -4.9375 6.71875 -5.78125 C 6.71875 -6.613281 6.660156 -7.332031 6.546875 -7.9375 C 6.441406 -8.539062 6.289062 -9.03125 6.09375 -9.40625 C 5.894531 -9.78125 5.660156 -10.054688 5.390625 -10.234375 C 5.117188 -10.421875 4.816406 -10.515625 4.484375 -10.515625 C 4.148438 -10.515625 3.84375 -10.421875 3.5625 -10.234375 C 3.289062 -10.054688 3.054688 -9.78125 2.859375 -9.40625 C 2.660156 -9.03125 2.503906 -8.539062 2.390625 -7.9375 C 2.285156 -7.332031 2.234375 -6.613281 2.234375 -5.78125 C 2.234375 -4.101562 2.4375 -2.878906 2.84375 -2.109375 C 3.257812 -1.347656 3.804688 -0.96875 4.484375 -0.96875 Z M 4.484375 -0.96875 "/>
</g>
<g id="glyph-0-14">
<path d="M 2.25 0.21875 C 1.945312 0.21875 1.691406 0.113281 1.484375 -0.09375 C 1.273438 -0.300781 1.171875 -0.570312 1.171875 -0.90625 C 1.171875 -1.25 1.273438 -1.523438 1.484375 -1.734375 C 1.691406 -1.941406 1.945312 -2.046875 2.25 -2.046875 C 2.539062 -2.046875 2.789062 -1.941406 3 -1.734375 C 3.207031 -1.523438 3.3125 -1.25 3.3125 -0.90625 C 3.3125 -0.570312 3.207031 -0.300781 3 -0.09375 C 2.789062 0.113281 2.539062 0.21875 2.25 0.21875 Z M 2.25 0.21875 "/>
</g>
<g id="glyph-0-15">
<path d="M 0.71875 0 L 0.71875 -0.875 C 1.582031 -1.738281 2.347656 -2.519531 3.015625 -3.21875 C 3.691406 -3.914062 4.257812 -4.5625 4.71875 -5.15625 C 5.175781 -5.75 5.523438 -6.296875 5.765625 -6.796875 C 6.003906 -7.296875 6.125 -7.78125 6.125 -8.25 C 6.125 -8.90625 5.941406 -9.441406 5.578125 -9.859375 C 5.222656 -10.285156 4.675781 -10.5 3.9375 -10.5 C 3.457031 -10.5 3.015625 -10.363281 2.609375 -10.09375 C 2.203125 -9.820312 1.832031 -9.492188 1.5 -9.109375 L 0.640625 -9.953125 C 1.128906 -10.484375 1.640625 -10.90625 2.171875 -11.21875 C 2.710938 -11.539062 3.363281 -11.703125 4.125 -11.703125 C 5.1875 -11.703125 6.023438 -11.390625 6.640625 -10.765625 C 7.253906 -10.148438 7.5625 -9.332031 7.5625 -8.3125 C 7.5625 -7.769531 7.441406 -7.226562 7.203125 -6.6875 C 6.972656 -6.144531 6.648438 -5.582031 6.234375 -5 C 5.816406 -4.414062 5.320312 -3.804688 4.75 -3.171875 C 4.1875 -2.546875 3.5625 -1.878906 2.875 -1.171875 C 3.1875 -1.191406 3.507812 -1.210938 3.84375 -1.234375 C 4.1875 -1.265625 4.507812 -1.28125 4.8125 -1.28125 L 8.140625 -1.28125 L 8.140625 0 Z M 0.71875 0 "/>
</g>
<g id="glyph-0-16">
<path d="M 4.21875 0.21875 C 3.757812 0.21875 3.335938 0.171875 2.953125 0.078125 C 2.578125 -0.00390625 2.234375 -0.117188 1.921875 -0.265625 C 1.617188 -0.410156 1.34375 -0.578125 1.09375 -0.765625 C 0.851562 -0.953125 0.640625 -1.144531 0.453125 -1.34375 L 1.171875 -2.328125 C 1.503906 -1.972656 1.898438 -1.664062 2.359375 -1.40625 C 2.828125 -1.144531 3.394531 -1.015625 4.0625 -1.015625 C 4.414062 -1.015625 4.742188 -1.078125 5.046875 -1.203125 C 5.359375 -1.328125 5.625 -1.5 5.84375 -1.71875 C 6.070312 -1.945312 6.253906 -2.222656 6.390625 -2.546875 C 6.523438 -2.878906 6.59375 -3.242188 6.59375 -3.640625 C 6.59375 -4.429688 6.367188 -5.046875 5.921875 -5.484375 C 5.472656 -5.929688 4.878906 -6.15625 4.140625 -6.15625 C 3.742188 -6.15625 3.40625 -6.09375 3.125 -5.96875 C 2.84375 -5.851562 2.523438 -5.679688 2.171875 -5.453125 L 1.390625 -5.953125 L 1.765625 -11.484375 L 7.5 -11.484375 L 7.5 -10.203125 L 3.0625 -10.203125 L 2.75 -6.796875 C 3.03125 -6.941406 3.304688 -7.054688 3.578125 -7.140625 C 3.859375 -7.222656 4.171875 -7.265625 4.515625 -7.265625 C 5.003906 -7.265625 5.460938 -7.191406 5.890625 -7.046875 C 6.328125 -6.910156 6.707031 -6.691406 7.03125 -6.390625 C 7.363281 -6.097656 7.617188 -5.726562 7.796875 -5.28125 C 7.984375 -4.832031 8.078125 -4.296875 8.078125 -3.671875 C 8.078125 -3.046875 7.96875 -2.492188 7.75 -2.015625 C 7.539062 -1.535156 7.253906 -1.128906 6.890625 -0.796875 C 6.535156 -0.472656 6.125 -0.222656 5.65625 -0.046875 C 5.195312 0.128906 4.71875 0.21875 4.21875 0.21875 Z M 4.21875 0.21875 "/>
</g>
<g id="glyph-0-17">
<path d="M 3.1875 0 C 3.238281 -1.082031 3.332031 -2.070312 3.46875 -2.96875 C 3.613281 -3.863281 3.816406 -4.71875 4.078125 -5.53125 C 4.335938 -6.34375 4.664062 -7.125 5.0625 -7.875 C 5.46875 -8.632812 5.953125 -9.410156 6.515625 -10.203125 L 0.796875 -10.203125 L 0.796875 -11.484375 L 8.1875 -11.484375 L 8.1875 -10.5625 C 7.5 -9.695312 6.941406 -8.867188 6.515625 -8.078125 C 6.097656 -7.285156 5.757812 -6.476562 5.5 -5.65625 C 5.25 -4.832031 5.066406 -3.960938 4.953125 -3.046875 C 4.835938 -2.128906 4.757812 -1.113281 4.71875 0 Z M 3.1875 0 "/>
</g>
<g id="glyph-0-18">
<path d="M 1.421875 0 L 1.421875 -1.21875 L 4.046875 -1.21875 L 4.046875 -9.6875 L 1.96875 -9.6875 L 1.96875 -10.640625 C 2.488281 -10.734375 2.941406 -10.847656 3.328125 -10.984375 C 3.722656 -11.128906 4.078125 -11.296875 4.390625 -11.484375 L 5.53125 -11.484375 L 5.53125 -1.21875 L 7.90625 -1.21875 L 7.90625 0 Z M 1.421875 0 "/>
</g>
<g id="glyph-0-19">
<path d="M 1.625 0 L 1.625 -11.8125 L 4.578125 -11.8125 C 6.398438 -11.8125 7.785156 -11.304688 8.734375 -10.296875 C 9.679688 -9.285156 10.15625 -7.835938 10.15625 -5.953125 C 10.15625 -5.015625 10.035156 -4.175781 9.796875 -3.4375 C 9.554688 -2.707031 9.203125 -2.085938 8.734375 -1.578125 C 8.265625 -1.066406 7.6875 -0.675781 7 -0.40625 C 6.3125 -0.132812 5.523438 0 4.640625 0 Z M 3.109375 -1.21875 L 4.46875 -1.21875 C 5.84375 -1.21875 6.875 -1.628906 7.5625 -2.453125 C 8.257812 -3.285156 8.609375 -4.453125 8.609375 -5.953125 C 8.609375 -7.453125 8.257812 -8.597656 7.5625 -9.390625 C 6.875 -10.179688 5.84375 -10.578125 4.46875 -10.578125 L 3.109375 -10.578125 Z M 3.109375 -1.21875 "/>
</g>
<g id="glyph-1-0">
<path d="M 0.21875 -4.890625 C 0.21875 -4.066406 0.0625 -3.300781 -0.25 -2.59375 C -0.5625 -1.882812 -0.988281 -1.269531 -1.53125 -0.75 L -2.578125 -1.65625 C -2.128906 -2.070312 -1.769531 -2.566406 -1.5 -3.140625 C -1.226562 -3.710938 -1.09375 -4.300781 -1.09375 -4.90625 C -1.09375 -5.6875 -1.269531 -6.289062 -1.625 -6.71875 C -1.976562 -7.15625 -2.445312 -7.375 -3.03125 -7.375 C -3.320312 -7.375 -3.570312 -7.320312 -3.78125 -7.21875 C -4 -7.125 -4.179688 -6.988281 -4.328125 -6.8125 C -4.472656 -6.632812 -4.601562 -6.425781 -4.71875 -6.1875 C -4.84375 -5.945312 -4.972656 -5.691406 -5.109375 -5.421875 L -5.84375 -3.71875 C -5.96875 -3.445312 -6.113281 -3.164062 -6.28125 -2.875 C -6.445312 -2.59375 -6.648438 -2.335938 -6.890625 -2.109375 C -7.128906 -1.878906 -7.414062 -1.691406 -7.75 -1.546875 C -8.082031 -1.398438 -8.460938 -1.328125 -8.890625 -1.328125 C -9.335938 -1.328125 -9.75 -1.421875 -10.125 -1.609375 C -10.507812 -1.796875 -10.84375 -2.050781 -11.125 -2.375 C -11.414062 -2.707031 -11.640625 -3.097656 -11.796875 -3.546875 C -11.953125 -4.003906 -12.03125 -4.503906 -12.03125 -5.046875 C -12.03125 -5.753906 -11.894531 -6.40625 -11.625 -7 C -11.351562 -7.601562 -11 -8.113281 -10.5625 -8.53125 L -9.59375 -7.71875 C -9.9375 -7.363281 -10.207031 -6.96875 -10.40625 -6.53125 C -10.601562 -6.09375 -10.703125 -5.597656 -10.703125 -5.046875 C -10.703125 -4.378906 -10.550781 -3.84375 -10.25 -3.4375 C -9.945312 -3.039062 -9.523438 -2.84375 -8.984375 -2.84375 C -8.691406 -2.84375 -8.445312 -2.898438 -8.25 -3.015625 C -8.050781 -3.128906 -7.875 -3.28125 -7.71875 -3.46875 C -7.570312 -3.664062 -7.441406 -3.878906 -7.328125 -4.109375 C -7.210938 -4.335938 -7.109375 -4.570312 -7.015625 -4.8125 L -6.296875 -6.484375 C -6.148438 -6.816406 -5.984375 -7.132812 -5.796875 -7.4375 C -5.617188 -7.738281 -5.40625 -7.992188 -5.15625 -8.203125 C -4.90625 -8.421875 -4.613281 -8.59375 -4.28125 -8.71875 C -3.957031 -8.84375 -3.582031 -8.90625 -3.15625 -8.90625 C -2.6875 -8.90625 -2.242188 -8.8125 -1.828125 -8.625 C -1.421875 -8.445312 -1.066406 -8.179688 -0.765625 -7.828125 C -0.460938 -7.484375 -0.222656 -7.0625 -0.046875 -6.5625 C 0.128906 -6.070312 0.21875 -5.515625 0.21875 -4.890625 Z M 0.21875 -4.890625 "/>
</g>
<g id="glyph-1-1">
<path d="M 0 -1.625 L -11.8125 -1.625 L -11.8125 -8.421875 L -10.546875 -8.421875 L -10.546875 -3.109375 L -6.84375 -3.109375 L -6.84375 -7.59375 L -5.5625 -7.59375 L -5.5625 -3.109375 L -1.28125 -3.109375 L -1.28125 -8.609375 L 0 -8.609375 Z M 0 -1.625 "/>
</g>
<g id="glyph-1-2">
<path d="M -3.9375 -0.734375 L -5.078125 -0.734375 L -5.078125 -4.875 L -3.9375 -4.875 Z M -3.9375 -0.734375 "/>
</g>
<g id="glyph-1-3">
<path d="M 0 -1.625 L -11.8125 -1.625 L -11.8125 -5.125 C -11.8125 -5.726562 -11.753906 -6.28125 -11.640625 -6.78125 C -11.535156 -7.28125 -11.367188 -7.707031 -11.140625 -8.0625 C -10.910156 -8.414062 -10.613281 -8.691406 -10.25 -8.890625 C -9.882812 -9.085938 -9.441406 -9.1875 -8.921875 -9.1875 C -8.335938 -9.1875 -7.804688 -9.035156 -7.328125 -8.734375 C -6.859375 -8.441406 -6.535156 -8.015625 -6.359375 -7.453125 L -6.28125 -7.453125 C -6.144531 -8.171875 -5.84375 -8.75 -5.375 -9.1875 C -4.914062 -9.632812 -4.273438 -9.859375 -3.453125 -9.859375 C -2.878906 -9.859375 -2.375 -9.75 -1.9375 -9.53125 C -1.507812 -9.320312 -1.148438 -9.019531 -0.859375 -8.625 C -0.578125 -8.226562 -0.363281 -7.753906 -0.21875 -7.203125 C -0.0703125 -6.648438 0 -6.039062 0 -5.375 Z M -6.78125 -3.109375 L -6.78125 -4.859375 C -6.78125 -5.867188 -6.953125 -6.59375 -7.296875 -7.03125 C -7.648438 -7.476562 -8.128906 -7.703125 -8.734375 -7.703125 C -9.410156 -7.703125 -9.894531 -7.46875 -10.1875 -7 C -10.476562 -6.539062 -10.625 -5.851562 -10.625 -4.9375 L -10.625 -3.109375 Z M -1.1875 -3.109375 L -1.1875 -5.171875 C -1.1875 -6.191406 -1.375 -6.984375 -1.75 -7.546875 C -2.132812 -8.109375 -2.722656 -8.390625 -3.515625 -8.390625 C -4.242188 -8.390625 -4.78125 -8.113281 -5.125 -7.5625 C -5.46875 -7.007812 -5.640625 -6.210938 -5.640625 -5.171875 L -5.640625 -3.109375 Z M -1.1875 -3.109375 "/>
</g>
<g id="glyph-1-4">
<path d="M 0 -1.46875 L -8.75 -1.46875 L -8.75 -2.953125 L 0 -2.953125 Z M -10.546875 -2.234375 C -10.546875 -1.941406 -10.632812 -1.695312 -10.8125 -1.5 C -11 -1.300781 -11.226562 -1.203125 -11.5 -1.203125 C -11.789062 -1.203125 -12.019531 -1.300781 -12.1875 -1.5 C -12.363281 -1.695312 -12.453125 -1.941406 -12.453125 -2.234375 C -12.453125 -2.515625 -12.363281 -2.753906 -12.1875 -2.953125 C -12.019531 -3.160156 -11.789062 -3.265625 -11.5 -3.265625 C -11.226562 -3.265625 -11 -3.160156 -10.8125 -2.953125 C -10.632812 -2.753906 -10.546875 -2.515625 -10.546875 -2.234375 Z M -10.546875 -2.234375 "/>
</g>
<g id="glyph-1-5">
<path d="M 0.21875 -3.484375 C 0.21875 -2.753906 0.00390625 -2.144531 -0.421875 -1.65625 C -0.859375 -1.175781 -1.472656 -0.9375 -2.265625 -0.9375 C -3.222656 -0.9375 -3.957031 -1.359375 -4.46875 -2.203125 C -4.976562 -3.054688 -5.335938 -4.421875 -5.546875 -6.296875 C -5.816406 -6.296875 -6.082031 -6.269531 -6.34375 -6.21875 C -6.613281 -6.164062 -6.847656 -6.070312 -7.046875 -5.9375 C -7.253906 -5.800781 -7.421875 -5.617188 -7.546875 -5.390625 C -7.671875 -5.160156 -7.734375 -4.863281 -7.734375 -4.5 C -7.734375 -4 -7.632812 -3.523438 -7.4375 -3.078125 C -7.25 -2.628906 -7.035156 -2.234375 -6.796875 -1.890625 L -7.828125 -1.3125 C -8.085938 -1.71875 -8.34375 -2.210938 -8.59375 -2.796875 C -8.84375 -3.390625 -8.96875 -4.039062 -8.96875 -4.75 C -8.96875 -5.820312 -8.640625 -6.597656 -7.984375 -7.078125 C -7.328125 -7.554688 -6.453125 -7.796875 -5.359375 -7.796875 L 0 -7.796875 L 0 -6.5625 L -1.046875 -6.4375 L -1.046875 -6.390625 C -0.691406 -5.972656 -0.390625 -5.519531 -0.140625 -5.03125 C 0.0976562 -4.550781 0.21875 -4.035156 0.21875 -3.484375 Z M -0.96875 -3.921875 C -0.96875 -4.335938 -1.066406 -4.734375 -1.265625 -5.109375 C -1.460938 -5.484375 -1.753906 -5.878906 -2.140625 -6.296875 L -4.578125 -6.296875 C -4.472656 -5.566406 -4.351562 -4.953125 -4.21875 -4.453125 C -4.09375 -3.953125 -3.9375 -3.550781 -3.75 -3.25 C -3.570312 -2.945312 -3.367188 -2.722656 -3.140625 -2.578125 C -2.910156 -2.441406 -2.65625 -2.375 -2.375 -2.375 C -1.875 -2.375 -1.515625 -2.523438 -1.296875 -2.828125 C -1.078125 -3.128906 -0.96875 -3.492188 -0.96875 -3.921875 Z M -0.96875 -3.921875 "/>
</g>
<g id="glyph-1-6">
<path d="M 0.21875 -3.765625 C 0.21875 -3.140625 0.101562 -2.546875 -0.125 -1.984375 C -0.351562 -1.421875 -0.640625 -0.925781 -0.984375 -0.5 L -1.984375 -1.234375 C -1.671875 -1.617188 -1.414062 -2.015625 -1.21875 -2.421875 C -1.03125 -2.828125 -0.9375 -3.289062 -0.9375 -3.8125 C -0.9375 -4.394531 -1.066406 -4.828125 -1.328125 -5.109375 C -1.597656 -5.398438 -1.921875 -5.546875 -2.296875 -5.546875 C -2.523438 -5.546875 -2.722656 -5.484375 -2.890625 -5.359375 C -3.066406 -5.242188 -3.21875 -5.09375 -3.34375 -4.90625 C -3.46875 -4.71875 -3.578125 -4.503906 -3.671875 -4.265625 C -3.765625 -4.023438 -3.859375 -3.785156 -3.953125 -3.546875 C -4.066406 -3.234375 -4.191406 -2.921875 -4.328125 -2.609375 C -4.460938 -2.296875 -4.628906 -2.015625 -4.828125 -1.765625 C -5.023438 -1.523438 -5.253906 -1.328125 -5.515625 -1.171875 C -5.785156 -1.015625 -6.109375 -0.9375 -6.484375 -0.9375 C -6.828125 -0.9375 -7.148438 -1.003906 -7.453125 -1.140625 C -7.765625 -1.273438 -8.03125 -1.472656 -8.25 -1.734375 C -8.476562 -1.992188 -8.65625 -2.304688 -8.78125 -2.671875 C -8.90625 -3.046875 -8.96875 -3.46875 -8.96875 -3.9375 C -8.96875 -4.488281 -8.867188 -4.992188 -8.671875 -5.453125 C -8.484375 -5.921875 -8.25 -6.320312 -7.96875 -6.65625 L -7.03125 -5.953125 C -7.257812 -5.660156 -7.445312 -5.347656 -7.59375 -5.015625 C -7.738281 -4.691406 -7.8125 -4.335938 -7.8125 -3.953125 C -7.8125 -3.398438 -7.6875 -2.992188 -7.4375 -2.734375 C -7.1875 -2.484375 -6.890625 -2.359375 -6.546875 -2.359375 C -6.347656 -2.359375 -6.171875 -2.410156 -6.015625 -2.515625 C -5.867188 -2.628906 -5.738281 -2.773438 -5.625 -2.953125 C -5.507812 -3.128906 -5.40625 -3.332031 -5.3125 -3.5625 C -5.226562 -3.800781 -5.140625 -4.046875 -5.046875 -4.296875 C -4.921875 -4.609375 -4.789062 -4.921875 -4.65625 -5.234375 C -4.53125 -5.554688 -4.367188 -5.84375 -4.171875 -6.09375 C -3.972656 -6.351562 -3.726562 -6.5625 -3.4375 -6.71875 C -3.144531 -6.882812 -2.796875 -6.96875 -2.390625 -6.96875 C -2.035156 -6.96875 -1.703125 -6.894531 -1.390625 -6.75 C -1.078125 -6.613281 -0.800781 -6.410156 -0.5625 -6.140625 C -0.320312 -5.867188 -0.132812 -5.53125 0 -5.125 C 0.144531 -4.726562 0.21875 -4.273438 0.21875 -3.765625 Z M 0.21875 -3.765625 "/>
</g>
</g>
<clipPath id="clip-0">
<path clip-rule="nonzero" d="M 86.398438 148 L 295.398438 148 L 295.398438 149 L 86.398438 149 Z M 86.398438 148 "/>
</clipPath>
</defs>
<rect x="-31.7" y="-34" width="380.4" height="408" fill="rgb(100%, 100%, 100%)" fill-opacity="1"/>
<path fill-rule="nonzero" fill="rgb(85.098039%, 81.568627%, 82.745098%)" fill-opacity="1" d="M 103.816406 116.8125 L 181.222656 116.8125 L 181.222656 50.992188 L 103.816406 50.992188 Z M 103.816406 116.8125 "/>
<path fill="none" stroke-width="2.25" stroke-linecap="butt" stroke-linejoin="round" stroke="rgb(0%, 0%, 0%)" stroke-opacity="1" stroke-miterlimit="10" d="M 103.816406 75.375 L 181.222656 75.375 "/>
<path fill="none" stroke-width="0.75" stroke-linecap="round" stroke-linejoin="round" stroke="rgb(0%, 0%, 0%)" stroke-opacity="1" stroke-dasharray="3 3" stroke-miterlimit="10" d="M 142.519531 161.125 L 142.519531 116.8125 "/>
<path fill="none" stroke-width="0.75" stroke-linecap="round" stroke-linejoin="round" stroke="rgb(0%, 0%, 0%)" stroke-opacity="1" stroke-dasharray="3 3" stroke-miterlimit="10" d="M 142.519531 50.992188 L 142.519531 50.992188 "/>
<path fill="none" stroke-width="0.75" stroke-linecap="round" stroke-linejoin="round" stroke="rgb(0%, 0%, 0%)" stroke-opacity="1" stroke-miterlimit="10" d="M 123.167969 161.125 L 161.871094 161.125 "/>
<path fill="none" stroke-width="0.75" stroke-linecap="round" stroke-linejoin="round" stroke="rgb(0%, 0%, 0%)" stroke-opacity="1" stroke-miterlimit="10" d="M 123.167969 50.992188 L 161.871094 50.992188 "/>
<path fill="none" stroke-width="0.75" stroke-linecap="round" stroke-linejoin="round" stroke="rgb(0%, 0%, 0%)" stroke-opacity="1" stroke-miterlimit="10" d="M 103.816406 116.8125 L 181.222656 116.8125 L 181.222656 50.992188 L 103.816406 50.992188 Z M 103.816406 116.8125 "/>
<path fill-rule="nonzero" fill="rgb(55.294118%, 52.54902%, 50.196078%)" fill-opacity="1" d="M 200.574219 133.9375 L 277.984375 133.9375 L 277.984375 76.203125 L 200.574219 76.203125 Z M 200.574219 133.9375 "/>
<path fill="none" stroke-width="2.25" stroke-linecap="butt" stroke-linejoin="round" stroke="rgb(0%, 0%, 0%)" stroke-opacity="1" stroke-miterlimit="10" d="M 200.574219 104.730469 L 277.984375 104.730469 "/>
<path fill="none" stroke-width="0.75" stroke-linecap="round" stroke-linejoin="round" stroke="rgb(0%, 0%, 0%)" stroke-opacity="1" stroke-dasharray="3 3" stroke-miterlimit="10" d="M 239.28125 173.890625 L 239.28125 133.9375 "/>
<path fill="none" stroke-width="0.75" stroke-linecap="round" stroke-linejoin="round" stroke="rgb(0%, 0%, 0%)" stroke-opacity="1" stroke-dasharray="3 3" stroke-miterlimit="10" d="M 239.28125 50.992188 L 239.28125 76.203125 "/>
<path fill="none" stroke-width="0.75" stroke-linecap="round" stroke-linejoin="round" stroke="rgb(0%, 0%, 0%)" stroke-opacity="1" stroke-miterlimit="10" d="M 219.929688 173.890625 L 258.632812 173.890625 "/>
<path fill="none" stroke-width="0.75" stroke-linecap="round" stroke-linejoin="round" stroke="rgb(0%, 0%, 0%)" stroke-opacity="1" stroke-miterlimit="10" d="M 219.929688 50.992188 L 258.632812 50.992188 "/>
<path fill="none" stroke-width="0.75" stroke-linecap="round" stroke-linejoin="round" stroke="rgb(0%, 0%, 0%)" stroke-opacity="1" stroke-miterlimit="10" d="M 200.574219 133.9375 L 277.984375 133.9375 L 277.984375 76.203125 L 200.574219 76.203125 Z M 200.574219 133.9375 "/>
<g fill="rgb(0%, 0%, 0%)" fill-opacity="1">
<use xlink:href="#glyph-0-0" x="167.398438" y="335.391602"/>
<use xlink:href="#glyph-0-1" x="178.398438" y="335.391602"/>
<use xlink:href="#glyph-0-2" x="184.398438" y="335.391602"/>
<use xlink:href="#glyph-0-3" x="194.398438" y="335.391602"/>
<use xlink:href="#glyph-0-4" x="204.398438" y="335.391602"/>
</g>
<g fill="rgb(0%, 0%, 0%)" fill-opacity="1">
<use xlink:href="#glyph-1-0" x="16.993164" y="176.898438"/>
<use xlink:href="#glyph-1-1" x="16.993164" y="166.898438"/>
<use xlink:href="#glyph-1-2" x="16.993164" y="157.898438"/>
<use xlink:href="#glyph-1-3" x="16.993164" y="151.898438"/>
<use xlink:href="#glyph-1-4" x="16.993164" y="140.898438"/>
<use xlink:href="#glyph-1-5" x="16.993164" y="136.898438"/>
<use xlink:href="#glyph-1-6" x="16.993164" y="127.898438"/>
</g>
<path fill="none" stroke-width="0.75" stroke-linecap="round" stroke-linejoin="round" stroke="rgb(0%, 0%, 0%)" stroke-opacity="1" stroke-miterlimit="10" d="M 142.519531 253.601562 L 239.28125 253.601562 "/>
<path fill="none" stroke-width="0.75" stroke-linecap="round" stroke-linejoin="round" stroke="rgb(0%, 0%, 0%)" stroke-opacity="1" stroke-miterlimit="10" d="M 142.519531 253.601562 L 142.519531 264.398438 "/>
<path fill="none" stroke-width="0.75" stroke-linecap="round" stroke-linejoin="round" stroke="rgb(0%, 0%, 0%)" stroke-opacity="1" stroke-miterlimit="10" d="M 239.28125 253.601562 L 239.28125 264.398438 "/>
<g fill="rgb(0%, 0%, 0%)" fill-opacity="1">
<use xlink:href="#glyph-0-5" x="118.519531" y="292.192383"/>
<use xlink:href="#glyph-0-6" x="127.519531" y="292.192383"/>
<use xlink:href="#glyph-0-7" x="133.519531" y="292.192383"/>
<use xlink:href="#glyph-0-8" x="142.519531" y="292.192383"/>
<use xlink:href="#glyph-0-9" x="152.519531" y="292.192383"/>
<use xlink:href="#glyph-0-10" x="157.519531" y="292.192383"/>
</g>
<g fill="rgb(0%, 0%, 0%)" fill-opacity="1">
<use xlink:href="#glyph-0-11" x="208.78125" y="292.192383"/>
<use xlink:href="#glyph-0-7" x="217.78125" y="292.192383"/>
<use xlink:href="#glyph-0-1" x="226.78125" y="292.192383"/>
<use xlink:href="#glyph-0-12" x="232.78125" y="292.192383"/>
<use xlink:href="#glyph-0-7" x="236.78125" y="292.192383"/>
<use xlink:href="#glyph-0-8" x="245.78125" y="292.192383"/>
<use xlink:href="#glyph-0-9" x="255.78125" y="292.192383"/>
<use xlink:href="#glyph-0-10" x="260.78125" y="292.192383"/>
</g>
<path fill="none" stroke-width="0.75" stroke-linecap="round" stroke-linejoin="round" stroke="rgb(0%, 0%, 0%)" stroke-opacity="1" stroke-miterlimit="10" d="M 86.398438 245.808594 L 86.398438 50.992188 "/>
<path fill="none" stroke-width="0.75" stroke-linecap="round" stroke-linejoin="round" stroke="rgb(0%, 0%, 0%)" stroke-opacity="1" stroke-miterlimit="10" d="M 86.398438 245.808594 L 75.601562 245.808594 "/>
<path fill="none" stroke-width="0.75" stroke-linecap="round" stroke-linejoin="round" stroke="rgb(0%, 0%, 0%)" stroke-opacity="1" stroke-miterlimit="10" d="M 86.398438 197.105469 L 75.601562 197.105469 "/>
<path fill="none" stroke-width="0.75" stroke-linecap="round" stroke-linejoin="round" stroke="rgb(0%, 0%, 0%)" stroke-opacity="1" stroke-miterlimit="10" d="M 86.398438 148.398438 L 75.601562 148.398438 "/>
<path fill="none" stroke-width="0.75" stroke-linecap="round" stroke-linejoin="round" stroke="rgb(0%, 0%, 0%)" stroke-opacity="1" stroke-miterlimit="10" d="M 86.398438 99.695312 L 75.601562 99.695312 "/>
<path fill="none" stroke-width="0.75" stroke-linecap="round" stroke-linejoin="round" stroke="rgb(0%, 0%, 0%)" stroke-opacity="1" stroke-miterlimit="10" d="M 86.398438 50.992188 L 75.601562 50.992188 "/>
<g fill="rgb(0%, 0%, 0%)" fill-opacity="1">
<use xlink:href="#glyph-0-13" x="55.800781" y="251.520508"/>
</g>
<g fill="rgb(0%, 0%, 0%)" fill-opacity="1">
<use xlink:href="#glyph-0-13" x="33.800781" y="202.817383"/>
<use xlink:href="#glyph-0-14" x="42.800781" y="202.817383"/>
<use xlink:href="#glyph-0-15" x="46.800781" y="202.817383"/>
<use xlink:href="#glyph-0-16" x="55.800781" y="202.817383"/>
</g>
<g fill="rgb(0%, 0%, 0%)" fill-opacity="1">
<use xlink:href="#glyph-0-13" x="42.800781" y="154.110352"/>
<use xlink:href="#glyph-0-14" x="51.800781" y="154.110352"/>
<use xlink:href="#glyph-0-16" x="55.800781" y="154.110352"/>
</g>
<g fill="rgb(0%, 0%, 0%)" fill-opacity="1">
<use xlink:href="#glyph-0-13" x="33.800781" y="105.407227"/>
<use xlink:href="#glyph-0-14" x="42.800781" y="105.407227"/>
<use xlink:href="#glyph-0-17" x="46.800781" y="105.407227"/>
<use xlink:href="#glyph-0-16" x="55.800781" y="105.407227"/>
</g>
<g fill="rgb(0%, 0%, 0%)" fill-opacity="1">
<use xlink:href="#glyph-0-18" x="55.800781" y="56.704102"/>
</g>
<g clip-path="url(#clip-0)">
<path fill="none" stroke-width="0.75" stroke-linecap="round" stroke-linejoin="round" stroke="rgb(66.27451%, 66.27451%, 66.27451%)" stroke-opacity="1" stroke-dasharray="3 3" stroke-miterlimit="10" d="M 86.398438 148.398438 L 295.398438 148.398438 "/>
</g>
<g fill="rgb(0%, 0%, 0%)" fill-opacity="1">
<use xlink:href="#glyph-0-19" x="1.101562" y="12.911133"/>
</g>
</svg>
