<?xml version="1.0" encoding="UTF-8"?>
<svg xmlns="http://www.w3.org/2000/svg" xmlns:xlink="http://www.w3.org/1999/xlink" width="283" height="170" viewBox="0 0 283 170">
<defs>
<g>
<g id="glyph-0-0">
<path d="M 1.8125 0 L 1.8125 -4.6875 L 0.21875 -4.6875 L 0.21875 -5.25 L 4.0625 -5.25 L 4.0625 -4.6875 L 2.484375 -4.6875 L 2.484375 0 Z M 1.8125 0 "/>
</g>
<g id="glyph-0-1">
<path d="M 0.71875 0 L 0.71875 -5.25 L 3.75 -5.25 L 3.75 -4.6875 L 1.390625 -4.6875 L 1.390625 -3.046875 L 3.375 -3.046875 L 3.375 -2.46875 L 1.390625 -2.46875 L 1.390625 -0.5625 L 3.828125 -0.5625 L 3.828125 0 Z M 0.71875 0 "/>
</g>
<g id="glyph-0-2">
<path d="M 1.984375 0.09375 C 1.472656 0.09375 1.070312 -0.132812 0.78125 -0.59375 C 0.5 -1.050781 0.359375 -1.707031 0.359375 -2.5625 C 0.359375 -3.425781 0.5 -4.082031 0.78125 -4.53125 C 1.070312 -4.976562 1.472656 -5.203125 1.984375 -5.203125 C 2.503906 -5.203125 2.90625 -4.976562 3.1875 -4.53125 C 3.476562 -4.082031 3.625 -3.425781 3.625 -2.5625 C 3.625 -1.707031 3.476562 -1.050781 3.1875 -0.59375 C 2.90625 -0.132812 2.503906 0.09375 1.984375 0.09375 Z M 1.984375 -0.4375 C 2.140625 -0.4375 2.273438 -0.476562 2.390625 -0.5625 C 2.515625 -0.644531 2.617188 -0.769531 2.703125 -0.9375 C 2.796875 -1.113281 2.863281 -1.335938 2.90625 -1.609375 C 2.957031 -1.878906 2.984375 -2.195312 2.984375 -2.5625 C 2.984375 -2.9375 2.957031 -3.253906 2.90625 -3.515625 C 2.863281 -3.785156 2.796875 -4.003906 2.703125 -4.171875 C 2.617188 -4.347656 2.515625 -4.472656 2.390625 -4.546875 C 2.273438 -4.628906 2.140625 -4.671875 1.984375 -4.671875 C 1.835938 -4.671875 1.703125 -4.628906 1.578125 -4.546875 C 1.460938 -4.472656 1.359375 -4.347656 1.265625 -4.171875 C 1.179688 -4.003906 1.113281 -3.785156 1.0625 -3.515625 C 1.007812 -3.253906 0.984375 -2.9375 0.984375 -2.5625 C 0.984375 -1.820312 1.078125 -1.28125 1.265625 -0.9375 C 1.453125 -0.601562 1.691406 -0.4375 1.984375 -0.4375 Z M 1.984375 -0.4375 "/>
</g>
<g id="glyph-0-3">
<path d="M 1.875 0.09375 C 1.664062 0.09375 1.476562 0.0703125 1.3125 0.03125 C 1.144531 -0.0078125 0.992188 -0.0625 0.859375 -0.125 C 0.722656 -0.1875 0.597656 -0.257812 0.484375 -0.34375 C 0.378906 -0.425781 0.285156 -0.507812 0.203125 -0.59375 L 0.515625 -1.03125 C 0.671875 -0.875 0.847656 -0.738281 1.046875 -0.625 C 1.253906 -0.507812 1.507812 -0.453125 1.8125 -0.453125 C 1.96875 -0.453125 2.113281 -0.476562 2.25 -0.53125 C 2.382812 -0.582031 2.5 -0.660156 2.59375 -0.765625 C 2.695312 -0.867188 2.773438 -0.992188 2.828125 -1.140625 C 2.890625 -1.285156 2.921875 -1.441406 2.921875 -1.609375 C 2.921875 -1.960938 2.820312 -2.238281 2.625 -2.4375 C 2.4375 -2.632812 2.175781 -2.734375 1.84375 -2.734375 C 1.664062 -2.734375 1.515625 -2.707031 1.390625 -2.65625 C 1.265625 -2.601562 1.125 -2.523438 0.96875 -2.421875 L 0.609375 -2.640625 L 0.78125 -5.109375 L 3.34375 -5.109375 L 3.34375 -4.53125 L 1.359375 -4.53125 L 1.21875 -3.03125 C 1.34375 -3.09375 1.46875 -3.140625 1.59375 -3.171875 C 1.71875 -3.210938 1.859375 -3.234375 2.015625 -3.234375 C 2.234375 -3.234375 2.4375 -3.203125 2.625 -3.140625 C 2.8125 -3.078125 2.976562 -2.976562 3.125 -2.84375 C 3.269531 -2.707031 3.382812 -2.539062 3.46875 -2.34375 C 3.550781 -2.144531 3.59375 -1.90625 3.59375 -1.625 C 3.59375 -1.351562 3.539062 -1.109375 3.4375 -0.890625 C 3.34375 -0.679688 3.21875 -0.503906 3.0625 -0.359375 C 2.90625 -0.210938 2.722656 -0.0976562 2.515625 -0.015625 C 2.304688 0.0546875 2.09375 0.09375 1.875 0.09375 Z M 1.875 0.09375 "/>
</g>
<g id="glyph-0-4">
<path d="M 0.625 0 L 0.625 -0.546875 L 1.796875 -0.546875 L 1.796875 -4.296875 L 0.875 -4.296875 L 0.875 -4.734375 C 1.101562 -4.773438 1.304688 -4.820312 1.484375 -4.875 C 1.660156 -4.9375 1.816406 -5.015625 1.953125 -5.109375 L 2.453125 -5.109375 L 2.453125 -0.546875 L 3.515625 -0.546875 L 3.515625 0 Z M 0.625 0 "/>
</g>
<g id="glyph-0-5">
<path d="M 0.3125 0 L 0.3125 -0.390625 C 0.695312 -0.773438 1.039062 -1.117188 1.34375 -1.421875 C 1.644531 -1.734375 1.894531 -2.019531 2.09375 -2.28125 C 2.300781 -2.550781 2.457031 -2.796875 2.5625 -3.015625 C 2.664062 -3.242188 2.71875 -3.457031 2.71875 -3.65625 C 2.71875 -3.957031 2.632812 -4.195312 2.46875 -4.375 C 2.3125 -4.5625 2.070312 -4.65625 1.75 -4.65625 C 1.539062 -4.65625 1.34375 -4.59375 1.15625 -4.46875 C 0.976562 -4.351562 0.8125 -4.210938 0.65625 -4.046875 L 0.28125 -4.421875 C 0.5 -4.660156 0.726562 -4.847656 0.96875 -4.984375 C 1.207031 -5.128906 1.492188 -5.203125 1.828125 -5.203125 C 2.304688 -5.203125 2.679688 -5.0625 2.953125 -4.78125 C 3.222656 -4.507812 3.359375 -4.148438 3.359375 -3.703125 C 3.359375 -3.460938 3.304688 -3.21875 3.203125 -2.96875 C 3.097656 -2.726562 2.953125 -2.476562 2.765625 -2.21875 C 2.585938 -1.957031 2.367188 -1.6875 2.109375 -1.40625 C 1.859375 -1.125 1.582031 -0.828125 1.28125 -0.515625 C 1.414062 -0.523438 1.554688 -0.535156 1.703125 -0.546875 C 1.859375 -0.554688 2.003906 -0.5625 2.140625 -0.5625 L 3.609375 -0.5625 L 3.609375 0 Z M 0.3125 0 "/>
</g>
<g id="glyph-0-6">
<path d="M 1.625 -2.9375 L 1.375 -2.140625 L 2.953125 -2.140625 L 2.703125 -2.9375 C 2.609375 -3.226562 2.515625 -3.519531 2.421875 -3.8125 C 2.335938 -4.101562 2.253906 -4.398438 2.171875 -4.703125 L 2.140625 -4.703125 C 2.066406 -4.398438 1.984375 -4.101562 1.890625 -3.8125 C 1.804688 -3.519531 1.71875 -3.226562 1.625 -2.9375 Z M 0.03125 0 L 1.796875 -5.25 L 2.546875 -5.25 L 4.328125 0 L 3.609375 0 L 3.125 -1.59375 L 1.203125 -1.59375 L 0.703125 0 Z M 0.03125 0 "/>
</g>
<g id="glyph-0-7">
<path d="M 2.171875 0.09375 C 1.804688 0.09375 1.46875 0.0234375 1.15625 -0.109375 C 0.84375 -0.242188 0.570312 -0.4375 0.34375 -0.6875 L 0.734375 -1.140625 C 0.921875 -0.941406 1.140625 -0.78125 1.390625 -0.65625 C 1.648438 -0.539062 1.914062 -0.484375 2.1875 -0.484375 C 2.53125 -0.484375 2.796875 -0.5625 2.984375 -0.71875 C 3.179688 -0.875 3.28125 -1.082031 3.28125 -1.34375 C 3.28125 -1.476562 3.253906 -1.59375 3.203125 -1.6875 C 3.160156 -1.78125 3.097656 -1.859375 3.015625 -1.921875 C 2.941406 -1.992188 2.851562 -2.054688 2.75 -2.109375 C 2.644531 -2.160156 2.53125 -2.210938 2.40625 -2.265625 L 1.65625 -2.59375 C 1.53125 -2.65625 1.40625 -2.722656 1.28125 -2.796875 C 1.15625 -2.867188 1.039062 -2.957031 0.9375 -3.0625 C 0.832031 -3.164062 0.75 -3.289062 0.6875 -3.4375 C 0.625 -3.582031 0.59375 -3.753906 0.59375 -3.953125 C 0.59375 -4.148438 0.632812 -4.332031 0.71875 -4.5 C 0.800781 -4.675781 0.914062 -4.828125 1.0625 -4.953125 C 1.207031 -5.078125 1.378906 -5.171875 1.578125 -5.234375 C 1.773438 -5.304688 1.992188 -5.34375 2.234375 -5.34375 C 2.554688 -5.34375 2.847656 -5.28125 3.109375 -5.15625 C 3.378906 -5.039062 3.609375 -4.890625 3.796875 -4.703125 L 3.4375 -4.265625 C 3.269531 -4.421875 3.085938 -4.539062 2.890625 -4.625 C 2.703125 -4.71875 2.484375 -4.765625 2.234375 -4.765625 C 1.941406 -4.765625 1.707031 -4.695312 1.53125 -4.5625 C 1.351562 -4.425781 1.265625 -4.234375 1.265625 -3.984375 C 1.265625 -3.859375 1.289062 -3.75 1.34375 -3.65625 C 1.394531 -3.570312 1.460938 -3.5 1.546875 -3.4375 C 1.628906 -3.375 1.71875 -3.316406 1.8125 -3.265625 C 1.914062 -3.210938 2.023438 -3.164062 2.140625 -3.125 L 2.875 -2.796875 C 3.03125 -2.734375 3.171875 -2.660156 3.296875 -2.578125 C 3.429688 -2.492188 3.546875 -2.394531 3.640625 -2.28125 C 3.742188 -2.175781 3.820312 -2.050781 3.875 -1.90625 C 3.925781 -1.757812 3.953125 -1.59375 3.953125 -1.40625 C 3.953125 -1.195312 3.910156 -1 3.828125 -0.8125 C 3.753906 -0.632812 3.640625 -0.476562 3.484375 -0.34375 C 3.328125 -0.207031 3.140625 -0.0976562 2.921875 -0.015625 C 2.703125 0.0546875 2.453125 0.09375 2.171875 0.09375 Z M 2.171875 0.09375 "/>
</g>
<g id="glyph-0-8">
<path d="M 1.875 0.09375 C 1.664062 0.09375 1.488281 0.0625 1.34375 0 C 1.207031 -0.0625 1.09375 -0.148438 1 -0.265625 C 0.914062 -0.378906 0.851562 -0.515625 0.8125 -0.671875 C 0.78125 -0.828125 0.765625 -1.003906 0.765625 -1.203125 L 0.765625 -3.359375 L 0.1875 -3.359375 L 0.1875 -3.84375 L 0.796875 -3.890625 L 0.875 -4.96875 L 1.4375 -4.96875 L 1.4375 -3.890625 L 2.484375 -3.890625 L 2.484375 -3.359375 L 1.4375 -3.359375 L 1.4375 -1.1875 C 1.4375 -0.945312 1.476562 -0.757812 1.5625 -0.625 C 1.65625 -0.5 1.8125 -0.4375 2.03125 -0.4375 C 2.101562 -0.4375 2.175781 -0.445312 2.25 -0.46875 C 2.332031 -0.488281 2.40625 -0.515625 2.46875 -0.546875 L 2.59375 -0.046875 C 2.488281 -0.00390625 2.375 0.0234375 2.25 0.046875 C 2.125 0.078125 2 0.09375 1.875 0.09375 Z M 1.875 0.09375 "/>
</g>
<g id="glyph-0-9">
<path d="M 1.546875 0.09375 C 1.222656 0.09375 0.953125 0 0.734375 -0.1875 C 0.523438 -0.382812 0.421875 -0.660156 0.421875 -1.015625 C 0.421875 -1.429688 0.609375 -1.753906 0.984375 -1.984375 C 1.359375 -2.210938 1.960938 -2.375 2.796875 -2.46875 C 2.796875 -2.582031 2.785156 -2.695312 2.765625 -2.8125 C 2.742188 -2.9375 2.703125 -3.039062 2.640625 -3.125 C 2.578125 -3.21875 2.492188 -3.289062 2.390625 -3.34375 C 2.285156 -3.40625 2.15625 -3.4375 2 -3.4375 C 1.769531 -3.4375 1.554688 -3.394531 1.359375 -3.3125 C 1.171875 -3.226562 1 -3.132812 0.84375 -3.03125 L 0.578125 -3.484375 C 0.765625 -3.597656 0.988281 -3.707031 1.25 -3.8125 C 1.507812 -3.925781 1.796875 -3.984375 2.109375 -3.984375 C 2.585938 -3.984375 2.929688 -3.835938 3.140625 -3.546875 C 3.359375 -3.253906 3.46875 -2.867188 3.46875 -2.390625 L 3.46875 0 L 2.921875 0 L 2.859375 -0.46875 L 2.84375 -0.46875 C 2.65625 -0.3125 2.453125 -0.175781 2.234375 -0.0625 C 2.023438 0.0390625 1.796875 0.09375 1.546875 0.09375 Z M 1.75 -0.4375 C 1.9375 -0.4375 2.109375 -0.476562 2.265625 -0.5625 C 2.429688 -0.65625 2.609375 -0.785156 2.796875 -0.953125 L 2.796875 -2.03125 C 2.472656 -1.988281 2.195312 -1.9375 1.96875 -1.875 C 1.75 -1.820312 1.570312 -1.753906 1.4375 -1.671875 C 1.300781 -1.585938 1.203125 -1.492188 1.140625 -1.390625 C 1.085938 -1.285156 1.0625 -1.175781 1.0625 -1.0625 C 1.0625 -0.832031 1.125 -0.671875 1.25 -0.578125 C 1.382812 -0.484375 1.550781 -0.4375 1.75 -0.4375 Z M 1.75 -0.4375 "/>
</g>
<g id="glyph-0-10">
<path d="M 2.375 0.09375 C 2.195312 0.09375 2.007812 0.0507812 1.8125 -0.03125 C 1.613281 -0.125 1.429688 -0.25 1.265625 -0.40625 L 1.234375 -0.40625 L 1.1875 0 L 0.65625 0 L 0.65625 -5.703125 L 1.3125 -5.703125 L 1.3125 -4.140625 L 1.296875 -3.4375 C 1.472656 -3.59375 1.664062 -3.722656 1.875 -3.828125 C 2.082031 -3.929688 2.296875 -3.984375 2.515625 -3.984375 C 2.765625 -3.984375 2.984375 -3.9375 3.171875 -3.84375 C 3.367188 -3.75 3.53125 -3.613281 3.65625 -3.4375 C 3.789062 -3.269531 3.890625 -3.0625 3.953125 -2.8125 C 4.023438 -2.570312 4.0625 -2.304688 4.0625 -2.015625 C 4.0625 -1.679688 4.015625 -1.382812 3.921875 -1.125 C 3.828125 -0.863281 3.703125 -0.640625 3.546875 -0.453125 C 3.390625 -0.273438 3.210938 -0.140625 3.015625 -0.046875 C 2.816406 0.046875 2.601562 0.09375 2.375 0.09375 Z M 2.265625 -0.453125 C 2.421875 -0.453125 2.566406 -0.488281 2.703125 -0.5625 C 2.835938 -0.632812 2.953125 -0.734375 3.046875 -0.859375 C 3.148438 -0.992188 3.226562 -1.15625 3.28125 -1.34375 C 3.34375 -1.539062 3.375 -1.757812 3.375 -2 C 3.375 -2.207031 3.351562 -2.398438 3.3125 -2.578125 C 3.28125 -2.753906 3.222656 -2.90625 3.140625 -3.03125 C 3.054688 -3.15625 2.945312 -3.253906 2.8125 -3.328125 C 2.6875 -3.398438 2.535156 -3.4375 2.359375 -3.4375 C 2.035156 -3.4375 1.6875 -3.257812 1.3125 -2.90625 L 1.3125 -0.859375 C 1.476562 -0.710938 1.644531 -0.609375 1.8125 -0.546875 C 1.988281 -0.484375 2.140625 -0.453125 2.265625 -0.453125 Z M 2.265625 -0.453125 "/>
</g>
<g id="glyph-0-11">
<path d="M 1.359375 0.09375 C 1.097656 0.09375 0.914062 0.0195312 0.8125 -0.125 C 0.707031 -0.28125 0.65625 -0.5 0.65625 -0.78125 L 0.65625 -5.703125 L 1.3125 -5.703125 L 1.3125 -0.734375 C 1.3125 -0.628906 1.328125 -0.554688 1.359375 -0.515625 C 1.398438 -0.472656 1.445312 -0.453125 1.5 -0.453125 C 1.519531 -0.453125 1.535156 -0.453125 1.546875 -0.453125 C 1.566406 -0.453125 1.597656 -0.457031 1.640625 -0.46875 L 1.734375 0.03125 C 1.679688 0.0507812 1.625 0.0664062 1.5625 0.078125 C 1.507812 0.0859375 1.441406 0.09375 1.359375 0.09375 Z M 1.359375 0.09375 "/>
</g>
<g id="glyph-0-12">
<path d="M 2.234375 0.09375 C 1.972656 0.09375 1.726562 0.046875 1.5 -0.046875 C 1.269531 -0.140625 1.070312 -0.269531 0.90625 -0.4375 C 0.738281 -0.613281 0.609375 -0.828125 0.515625 -1.078125 C 0.421875 -1.328125 0.375 -1.613281 0.375 -1.9375 C 0.375 -2.257812 0.421875 -2.546875 0.515625 -2.796875 C 0.609375 -3.046875 0.738281 -3.257812 0.90625 -3.4375 C 1.070312 -3.613281 1.257812 -3.75 1.46875 -3.84375 C 1.675781 -3.9375 1.890625 -3.984375 2.109375 -3.984375 C 2.359375 -3.984375 2.578125 -3.941406 2.765625 -3.859375 C 2.960938 -3.773438 3.125 -3.648438 3.25 -3.484375 C 3.382812 -3.328125 3.484375 -3.132812 3.546875 -2.90625 C 3.617188 -2.6875 3.65625 -2.4375 3.65625 -2.15625 C 3.65625 -2.09375 3.65625 -2.023438 3.65625 -1.953125 C 3.65625 -1.890625 3.648438 -1.832031 3.640625 -1.78125 L 1.015625 -1.78125 C 1.046875 -1.363281 1.175781 -1.035156 1.40625 -0.796875 C 1.632812 -0.554688 1.9375 -0.4375 2.3125 -0.4375 C 2.5 -0.4375 2.671875 -0.460938 2.828125 -0.515625 C 2.984375 -0.566406 3.132812 -0.640625 3.28125 -0.734375 L 3.515625 -0.296875 C 3.335938 -0.191406 3.144531 -0.0976562 2.9375 -0.015625 C 2.726562 0.0546875 2.492188 0.09375 2.234375 0.09375 Z M 1.015625 -2.25 L 3.09375 -2.25 C 3.09375 -2.644531 3.003906 -2.945312 2.828125 -3.15625 C 2.660156 -3.363281 2.425781 -3.46875 2.125 -3.46875 C 1.988281 -3.46875 1.859375 -3.4375 1.734375 -3.375 C 1.609375 -3.320312 1.492188 -3.242188 1.390625 -3.140625 C 1.285156 -3.035156 1.203125 -2.910156 1.140625 -2.765625 C 1.078125 -2.617188 1.035156 -2.445312 1.015625 -2.25 Z M 1.015625 -2.25 "/>
</g>
<g id="glyph-0-13">
<path d="M 1.6875 0 L 0 -5.25 L 0.71875 -5.25 L 1.546875 -2.421875 C 1.648438 -2.097656 1.734375 -1.800781 1.796875 -1.53125 C 1.867188 -1.269531 1.957031 -0.988281 2.0625 -0.6875 L 2.09375 -0.6875 C 2.1875 -0.988281 2.269531 -1.269531 2.34375 -1.53125 C 2.425781 -1.800781 2.507812 -2.097656 2.59375 -2.421875 L 3.4375 -5.25 L 4.125 -5.25 L 2.453125 0 Z M 1.6875 0 "/>
</g>
<g id="glyph-0-14">
<path d="M 0.65625 0 L 0.65625 -3.890625 L 1.203125 -3.890625 L 1.25 -3.1875 L 1.28125 -3.1875 C 1.414062 -3.425781 1.578125 -3.617188 1.765625 -3.765625 C 1.953125 -3.910156 2.160156 -3.984375 2.390625 -3.984375 C 2.535156 -3.984375 2.671875 -3.957031 2.796875 -3.90625 L 2.671875 -3.328125 C 2.609375 -3.347656 2.550781 -3.363281 2.5 -3.375 C 2.445312 -3.382812 2.378906 -3.390625 2.296875 -3.390625 C 2.128906 -3.390625 1.957031 -3.320312 1.78125 -3.1875 C 1.601562 -3.050781 1.445312 -2.820312 1.3125 -2.5 L 1.3125 0 Z M 0.65625 0 "/>
</g>
<g id="glyph-0-15">
<path d="M 0.65625 0 L 0.65625 -3.890625 L 1.3125 -3.890625 L 1.3125 0 Z M 0.984375 -4.6875 C 0.859375 -4.6875 0.75 -4.722656 0.65625 -4.796875 C 0.570312 -4.878906 0.53125 -4.984375 0.53125 -5.109375 C 0.53125 -5.234375 0.570312 -5.332031 0.65625 -5.40625 C 0.75 -5.488281 0.859375 -5.53125 0.984375 -5.53125 C 1.117188 -5.53125 1.226562 -5.488281 1.3125 -5.40625 C 1.40625 -5.332031 1.453125 -5.234375 1.453125 -5.109375 C 1.453125 -4.984375 1.40625 -4.878906 1.3125 -4.796875 C 1.226562 -4.722656 1.117188 -4.6875 0.984375 -4.6875 Z M 0.984375 -4.6875 "/>
</g>
<g id="glyph-0-16">
<path d="M 0.71875 0 L 0.71875 -5.25 L 2.28125 -5.25 C 2.550781 -5.25 2.796875 -5.222656 3.015625 -5.171875 C 3.234375 -5.128906 3.421875 -5.054688 3.578125 -4.953125 C 3.734375 -4.847656 3.851562 -4.710938 3.9375 -4.546875 C 4.03125 -4.390625 4.078125 -4.195312 4.078125 -3.96875 C 4.078125 -3.707031 4.007812 -3.46875 3.875 -3.25 C 3.75 -3.039062 3.5625 -2.898438 3.3125 -2.828125 L 3.3125 -2.796875 C 3.632812 -2.734375 3.894531 -2.597656 4.09375 -2.390625 C 4.289062 -2.179688 4.390625 -1.894531 4.390625 -1.53125 C 4.390625 -1.28125 4.335938 -1.054688 4.234375 -0.859375 C 4.140625 -0.671875 4.003906 -0.507812 3.828125 -0.375 C 3.648438 -0.25 3.4375 -0.15625 3.1875 -0.09375 C 2.945312 -0.03125 2.679688 0 2.390625 0 Z M 1.390625 -3.015625 L 2.15625 -3.015625 C 2.601562 -3.015625 2.925781 -3.09375 3.125 -3.25 C 3.320312 -3.40625 3.421875 -3.613281 3.421875 -3.875 C 3.421875 -4.1875 3.316406 -4.40625 3.109375 -4.53125 C 2.910156 -4.65625 2.601562 -4.71875 2.1875 -4.71875 L 1.390625 -4.71875 Z M 1.390625 -0.53125 L 2.296875 -0.53125 C 2.742188 -0.53125 3.09375 -0.613281 3.34375 -0.78125 C 3.601562 -0.945312 3.734375 -1.207031 3.734375 -1.5625 C 3.734375 -1.882812 3.609375 -2.117188 3.359375 -2.265625 C 3.109375 -2.421875 2.753906 -2.5 2.296875 -2.5 L 1.390625 -2.5 Z M 1.390625 -0.53125 "/>
</g>
<g id="glyph-1-0">
<path d="M 0 -0.765625 L -3.359375 -0.765625 L -3.359375 -0.234375 L -3.84375 -0.234375 L -3.890625 -0.765625 L -4.5 -0.765625 C -4.90625 -0.765625 -5.222656 -0.851562 -5.453125 -1.03125 C -5.679688 -1.21875 -5.796875 -1.507812 -5.796875 -1.90625 C -5.796875 -2.03125 -5.78125 -2.144531 -5.75 -2.25 C -5.726562 -2.363281 -5.695312 -2.460938 -5.65625 -2.546875 L -5.15625 -2.40625 C -5.21875 -2.257812 -5.25 -2.113281 -5.25 -1.96875 C -5.25 -1.601562 -5 -1.421875 -4.5 -1.421875 L -3.890625 -1.421875 L -3.890625 -2.25 L -3.359375 -2.25 L -3.359375 -1.421875 L 0 -1.421875 Z M 0 -0.765625 "/>
</g>
<g id="glyph-1-1">
<path d="M 0 -0.65625 L -3.890625 -0.65625 L -3.890625 -1.203125 L -3.1875 -1.25 L -3.1875 -1.28125 C -3.425781 -1.414062 -3.617188 -1.578125 -3.765625 -1.765625 C -3.910156 -1.953125 -3.984375 -2.160156 -3.984375 -2.390625 C -3.984375 -2.535156 -3.957031 -2.671875 -3.90625 -2.796875 L -3.328125 -2.671875 C -3.347656 -2.609375 -3.363281 -2.550781 -3.375 -2.5 C -3.382812 -2.445312 -3.390625 -2.378906 -3.390625 -2.296875 C -3.390625 -2.128906 -3.320312 -1.957031 -3.1875 -1.78125 C -3.050781 -1.601562 -2.820312 -1.445312 -2.5 -1.3125 L 0 -1.3125 Z M 0 -0.65625 "/>
</g>
<g id="glyph-1-2">
<path d="M 0.09375 -2.234375 C 0.09375 -1.972656 0.046875 -1.726562 -0.046875 -1.5 C -0.140625 -1.269531 -0.269531 -1.070312 -0.4375 -0.90625 C -0.613281 -0.738281 -0.828125 -0.609375 -1.078125 -0.515625 C -1.328125 -0.421875 -1.613281 -0.375 -1.9375 -0.375 C -2.257812 -0.375 -2.546875 -0.421875 -2.796875 -0.515625 C -3.046875 -0.609375 -3.257812 -0.738281 -3.4375 -0.90625 C -3.613281 -1.070312 -3.75 -1.257812 -3.84375 -1.46875 C -3.9375 -1.675781 -3.984375 -1.890625 -3.984375 -2.109375 C -3.984375 -2.359375 -3.941406 -2.578125 -3.859375 -2.765625 C -3.773438 -2.960938 -3.648438 -3.125 -3.484375 -3.25 C -3.328125 -3.382812 -3.132812 -3.484375 -2.90625 -3.546875 C -2.6875 -3.617188 -2.4375 -3.65625 -2.15625 -3.65625 C -2.09375 -3.65625 -2.023438 -3.65625 -1.953125 -3.65625 C -1.890625 -3.65625 -1.832031 -3.648438 -1.78125 -3.640625 L -1.78125 -1.015625 C -1.363281 -1.046875 -1.035156 -1.175781 -0.796875 -1.40625 C -0.554688 -1.632812 -0.4375 -1.9375 -0.4375 -2.3125 C -0.4375 -2.5 -0.460938 -2.671875 -0.515625 -2.828125 C -0.566406 -2.984375 -0.640625 -3.132812 -0.734375 -3.28125 L -0.296875 -3.515625 C -0.191406 -3.335938 -0.0976562 -3.144531 -0.015625 -2.9375 C 0.0546875 -2.726562 0.09375 -2.492188 0.09375 -2.234375 Z M -2.25 -1.015625 L -2.25 -3.09375 C -2.644531 -3.09375 -2.945312 -3.003906 -3.15625 -2.828125 C -3.363281 -2.660156 -3.46875 -2.425781 -3.46875 -2.125 C -3.46875 -1.988281 -3.4375 -1.859375 -3.375 -1.734375 C -3.320312 -1.609375 -3.242188 -1.492188 -3.140625 -1.390625 C -3.035156 -1.285156 -2.910156 -1.203125 -2.765625 -1.140625 C -2.617188 -1.078125 -2.445312 -1.035156 -2.25 -1.015625 Z M -2.25 -1.015625 "/>
</g>
<g id="glyph-1-3">
<path d="M 1.640625 -3.125 L 0.25 -3.125 L -0.453125 -3.15625 C -0.296875 -3 -0.164062 -2.816406 -0.0625 -2.609375 C 0.0390625 -2.410156 0.09375 -2.203125 0.09375 -1.984375 C 0.09375 -1.492188 -0.078125 -1.101562 -0.421875 -0.8125 C -0.773438 -0.519531 -1.28125 -0.375 -1.9375 -0.375 C -2.25 -0.375 -2.53125 -0.421875 -2.78125 -0.515625 C -3.039062 -0.609375 -3.257812 -0.734375 -3.4375 -0.890625 C -3.613281 -1.046875 -3.75 -1.222656 -3.84375 -1.421875 C -3.9375 -1.628906 -3.984375 -1.84375 -3.984375 -2.0625 C -3.984375 -2.289062 -3.941406 -2.488281 -3.859375 -2.65625 C -3.785156 -2.820312 -3.671875 -2.992188 -3.515625 -3.171875 L -3.515625 -3.1875 L -3.890625 -3.25 L -3.890625 -3.78125 L 1.640625 -3.78125 Z M -0.453125 -2.125 C -0.453125 -2.3125 -0.492188 -2.484375 -0.578125 -2.640625 C -0.671875 -2.796875 -0.804688 -2.957031 -0.984375 -3.125 L -3.03125 -3.125 C -3.175781 -2.957031 -3.28125 -2.796875 -3.34375 -2.640625 C -3.40625 -2.492188 -3.4375 -2.335938 -3.4375 -2.171875 C -3.4375 -2.015625 -3.398438 -1.867188 -3.328125 -1.734375 C -3.253906 -1.597656 -3.148438 -1.476562 -3.015625 -1.375 C -2.890625 -1.28125 -2.734375 -1.203125 -2.546875 -1.140625 C -2.367188 -1.085938 -2.164062 -1.0625 -1.9375 -1.0625 C -1.46875 -1.0625 -1.101562 -1.148438 -0.84375 -1.328125 C -0.582031 -1.515625 -0.453125 -1.78125 -0.453125 -2.125 Z M -0.453125 -2.125 "/>
</g>
<g id="glyph-1-4">
<path d="M 0.09375 -1.984375 C 0.09375 -1.472656 -0.132812 -1.070312 -0.59375 -0.78125 C -1.050781 -0.5 -1.707031 -0.359375 -2.5625 -0.359375 C -3.425781 -0.359375 -4.082031 -0.5 -4.53125 -0.78125 C -4.976562 -1.070312 -5.203125 -1.472656 -5.203125 -1.984375 C -5.203125 -2.503906 -4.976562 -2.90625 -4.53125 -3.1875 C -4.082031 -3.476562 -3.425781 -3.625 -2.5625 -3.625 C -1.707031 -3.625 -1.050781 -3.476562 -0.59375 -3.1875 C -0.132812 -2.90625 0.09375 -2.503906 0.09375 -1.984375 Z M -0.4375 -1.984375 C -0.4375 -2.140625 -0.476562 -2.273438 -0.5625 -2.390625 C -0.644531 -2.515625 -0.769531 -2.617188 -0.9375 -2.703125 C -1.113281 -2.796875 -1.335938 -2.863281 -1.609375 -2.90625 C -1.878906 -2.957031 -2.195312 -2.984375 -2.5625 -2.984375 C -2.9375 -2.984375 -3.253906 -2.957031 -3.515625 -2.90625 C -3.785156 -2.863281 -4.003906 -2.796875 -4.171875 -2.703125 C -4.347656 -2.617188 -4.472656 -2.515625 -4.546875 -2.390625 C -4.628906 -2.273438 -4.671875 -2.140625 -4.671875 -1.984375 C -4.671875 -1.835938 -4.628906 -1.703125 -4.546875 -1.578125 C -4.472656 -1.460938 -4.347656 -1.359375 -4.171875 -1.265625 C -4.003906 -1.179688 -3.785156 -1.113281 -3.515625 -1.0625 C -3.253906 -1.007812 -2.9375 -0.984375 -2.5625 -0.984375 C -1.820312 -0.984375 -1.28125 -1.078125 -0.9375 -1.265625 C -0.601562 -1.453125 -0.4375 -1.691406 -0.4375 -1.984375 Z M -0.4375 -1.984375 "/>
</g>
<g id="glyph-1-5">
<path d="M 0 -0.3125 L -0.390625 -0.3125 C -0.773438 -0.695312 -1.117188 -1.039062 -1.421875 -1.34375 C -1.734375 -1.644531 -2.019531 -1.894531 -2.28125 -2.09375 C -2.550781 -2.300781 -2.796875 -2.457031 -3.015625 -2.5625 C -3.242188 -2.664062 -3.457031 -2.71875 -3.65625 -2.71875 C -3.957031 -2.71875 -4.195312 -2.632812 -4.375 -2.46875 C -4.5625 -2.3125 -4.65625 -2.070312 -4.65625 -1.75 C -4.65625 -1.539062 -4.59375 -1.34375 -4.46875 -1.15625 C -4.351562 -0.976562 -4.210938 -0.8125 -4.046875 -0.65625 L -4.421875 -0.28125 C -4.660156 -0.5 -4.847656 -0.726562 -4.984375 -0.96875 C -5.128906 -1.207031 -5.203125 -1.492188 -5.203125 -1.828125 C -5.203125 -2.304688 -5.0625 -2.679688 -4.78125 -2.953125 C -4.507812 -3.222656 -4.148438 -3.359375 -3.703125 -3.359375 C -3.460938 -3.359375 -3.21875 -3.304688 -2.96875 -3.203125 C -2.726562 -3.097656 -2.476562 -2.953125 -2.21875 -2.765625 C -1.957031 -2.585938 -1.6875 -2.367188 -1.40625 -2.109375 C -1.125 -1.859375 -0.828125 -1.582031 -0.515625 -1.28125 C -0.523438 -1.414062 -0.535156 -1.554688 -0.546875 -1.703125 C -0.554688 -1.859375 -0.5625 -2.003906 -0.5625 -2.140625 L -0.5625 -3.609375 L 0 -3.609375 Z M 0 -0.3125 "/>
</g>
<g id="glyph-1-6">
<path d="M 0 -2.4375 L -1.40625 -2.4375 L -1.40625 -0.140625 L -1.84375 -0.140625 L -5.109375 -2.3125 L -5.109375 -3.0625 L -1.9375 -3.0625 L -1.9375 -3.75 L -1.40625 -3.75 L -1.40625 -3.0625 L 0 -3.0625 Z M -1.9375 -0.828125 L -1.9375 -2.4375 L -3.421875 -2.4375 C -3.554688 -2.4375 -3.71875 -2.4375 -3.90625 -2.4375 C -4.09375 -2.445312 -4.257812 -2.457031 -4.40625 -2.46875 L -4.40625 -2.4375 C -4.28125 -2.375 -4.15625 -2.304688 -4.03125 -2.234375 C -3.914062 -2.171875 -3.800781 -2.101562 -3.6875 -2.03125 Z M -1.9375 -0.828125 "/>
</g>
</g>
</defs>
<rect x="-28.3" y="-17" width="339.6" height="204" fill="rgb(100%, 100%, 100%)" fill-opacity="1"/>
<g fill="rgb(0%, 0%, 0%)" fill-opacity="1">
<use xlink:href="#glyph-0-0" x="81.148438" y="167.950195"/>
<use xlink:href="#glyph-0-1" x="85.148438" y="167.950195"/>
</g>
<g fill="rgb(0%, 0%, 0%)" fill-opacity="1">
<use xlink:href="#glyph-1-0" x="7.551758" y="81.898438"/>
<use xlink:href="#glyph-1-1" x="7.551758" y="79.898438"/>
<use xlink:href="#glyph-1-2" x="7.551758" y="76.898438"/>
<use xlink:href="#glyph-1-3" x="7.551758" y="72.898438"/>
</g>
<path fill-rule="nonzero" fill="rgb(93.72549%, 54.117647%, 38.431373%)" fill-opacity="0.701961" stroke-width="0.75" stroke-linecap="round" stroke-linejoin="round" stroke="rgb(0%, 0%, 0%)" stroke-opacity="1" stroke-miterlimit="10" d="M 41.863281 127.4375 L 52.683594 127.4375 L 52.683594 77.480469 L 41.863281 77.480469 Z M 41.863281 127.4375 "/>
<path fill-rule="nonzero" fill="rgb(93.72549%, 54.117647%, 38.431373%)" fill-opacity="0.701961" stroke-width="0.75" stroke-linecap="round" stroke-linejoin="round" stroke="rgb(0%, 0%, 0%)" stroke-opacity="1" stroke-miterlimit="10" d="M 52.683594 127.4375 L 63.503906 127.4375 L 63.503906 44.179688 L 52.683594 44.179688 Z M 52.683594 127.4375 "/>
<path fill-rule="nonzero" fill="rgb(93.72549%, 54.117647%, 38.431373%)" fill-opacity="0.701961" stroke-width="0.75" stroke-linecap="round" stroke-linejoin="round" stroke="rgb(0%, 0%, 0%)" stroke-opacity="1" stroke-miterlimit="10" d="M 63.507812 127.4375 L 74.328125 127.4375 L 74.328125 89.972656 L 63.507812 89.972656 Z M 63.507812 127.4375 "/>
<path fill-rule="nonzero" fill="rgb(93.72549%, 54.117647%, 38.431373%)" fill-opacity="0.701961" stroke-width="0.75" stroke-linecap="round" stroke-linejoin="round" stroke="rgb(0%, 0%, 0%)" stroke-opacity="1" stroke-miterlimit="10" d="M 74.328125 127.4375 L 85.148438 127.4375 L 85.148438 110.785156 L 74.328125 110.785156 Z M 74.328125 127.4375 "/>
<path fill-rule="nonzero" fill="rgb(93.72549%, 54.117647%, 38.431373%)" fill-opacity="0.701961" stroke-width="0.75" stroke-linecap="round" stroke-linejoin="round" stroke="rgb(0%, 0%, 0%)" stroke-opacity="1" stroke-miterlimit="10" d="M 85.148438 127.4375 L 95.96875 127.4375 L 95.96875 114.949219 L 85.148438 114.949219 Z M 85.148438 127.4375 "/>
<path fill-rule="nonzero" fill="rgb(93.72549%, 54.117647%, 38.431373%)" fill-opacity="0.701961" stroke-width="0.75" stroke-linecap="round" stroke-linejoin="round" stroke="rgb(0%, 0%, 0%)" stroke-opacity="1" stroke-miterlimit="10" d="M 95.972656 127.4375 L 106.792969 127.4375 L 106.792969 119.113281 L 95.972656 119.113281 Z M 95.972656 127.4375 "/>
<path fill="none" stroke-width="0.75" stroke-linecap="round" stroke-linejoin="round" stroke="rgb(0%, 0%, 0%)" stroke-opacity="1" stroke-miterlimit="10" d="M 41.863281 131.601562 L 128.4375 131.601562 "/>
<path fill="none" stroke-width="0.75" stroke-linecap="round" stroke-linejoin="round" stroke="rgb(0%, 0%, 0%)" stroke-opacity="1" stroke-miterlimit="10" d="M 41.863281 131.601562 L 41.863281 136.398438 "/>
<path fill="none" stroke-width="0.75" stroke-linecap="round" stroke-linejoin="round" stroke="rgb(0%, 0%, 0%)" stroke-opacity="1" stroke-miterlimit="10" d="M 85.148438 131.601562 L 85.148438 136.398438 "/>
<path fill="none" stroke-width="0.75" stroke-linecap="round" stroke-linejoin="round" stroke="rgb(0%, 0%, 0%)" stroke-opacity="1" stroke-miterlimit="10" d="M 128.4375 131.601562 L 128.4375 136.398438 "/>
<g fill="rgb(0%, 0%, 0%)" fill-opacity="1">
<use xlink:href="#glyph-1-4" x="44.735352" y="145.199219"/>
</g>
<g fill="rgb(0%, 0%, 0%)" fill-opacity="1">
<use xlink:href="#glyph-1-5" x="88.020508" y="149.199219"/>
<use xlink:href="#glyph-1-4" x="88.020508" y="145.199219"/>
</g>
<g fill="rgb(0%, 0%, 0%)" fill-opacity="1">
<use xlink:href="#glyph-1-6" x="131.30957" y="149.199219"/>
<use xlink:href="#glyph-1-4" x="131.30957" y="145.199219"/>
</g>
<path fill="none" stroke-width="0.75" stroke-linecap="round" stroke-linejoin="round" stroke="rgb(0%, 0%, 0%)" stroke-opacity="1" stroke-miterlimit="10" d="M 38.398438 127.4375 L 38.398438 23.363281 "/>
<path fill="none" stroke-width="0.75" stroke-linecap="round" stroke-linejoin="round" stroke="rgb(0%, 0%, 0%)" stroke-opacity="1" stroke-miterlimit="10" d="M 38.398438 127.4375 L 33.601562 127.4375 "/>
<path fill="none" stroke-width="0.75" stroke-linecap="round" stroke-linejoin="round" stroke="rgb(0%, 0%, 0%)" stroke-opacity="1" stroke-miterlimit="10" d="M 38.398438 106.621094 L 33.601562 106.621094 "/>
<path fill="none" stroke-width="0.75" stroke-linecap="round" stroke-linejoin="round" stroke="rgb(0%, 0%, 0%)" stroke-opacity="1" stroke-miterlimit="10" d="M 38.398438 85.808594 L 33.601562 85.808594 "/>
<path fill="none" stroke-width="0.75" stroke-linecap="round" stroke-linejoin="round" stroke="rgb(0%, 0%, 0%)" stroke-opacity="1" stroke-miterlimit="10" d="M 38.398438 64.992188 L 33.601562 64.992188 "/>
<path fill="none" stroke-width="0.75" stroke-linecap="round" stroke-linejoin="round" stroke="rgb(0%, 0%, 0%)" stroke-opacity="1" stroke-miterlimit="10" d="M 38.398438 44.179688 L 33.601562 44.179688 "/>
<path fill="none" stroke-width="0.75" stroke-linecap="round" stroke-linejoin="round" stroke="rgb(0%, 0%, 0%)" stroke-opacity="1" stroke-miterlimit="10" d="M 38.398438 23.363281 L 33.601562 23.363281 "/>
<g fill="rgb(0%, 0%, 0%)" fill-opacity="1">
<use xlink:href="#glyph-0-2" x="24.800781" y="130.30957"/>
</g>
<g fill="rgb(0%, 0%, 0%)" fill-opacity="1">
<use xlink:href="#glyph-0-3" x="24.800781" y="109.493164"/>
</g>
<g fill="rgb(0%, 0%, 0%)" fill-opacity="1">
<use xlink:href="#glyph-0-4" x="20.800781" y="88.680664"/>
<use xlink:href="#glyph-0-2" x="24.800781" y="88.680664"/>
</g>
<g fill="rgb(0%, 0%, 0%)" fill-opacity="1">
<use xlink:href="#glyph-0-4" x="20.800781" y="67.864258"/>
<use xlink:href="#glyph-0-3" x="24.800781" y="67.864258"/>
</g>
<g fill="rgb(0%, 0%, 0%)" fill-opacity="1">
<use xlink:href="#glyph-0-5" x="20.800781" y="47.051758"/>
<use xlink:href="#glyph-0-2" x="24.800781" y="47.051758"/>
</g>
<g fill="rgb(0%, 0%, 0%)" fill-opacity="1">
<use xlink:href="#glyph-0-5" x="20.800781" y="26.235352"/>
<use xlink:href="#glyph-0-3" x="24.800781" y="26.235352"/>
</g>
<g fill="rgb(0%, 0%, 0%)" fill-opacity="1">
<use xlink:href="#glyph-0-6" x="0.398438" y="6.473633"/>
</g>
<path fill-rule="nonzero" fill="rgb(93.72549%, 54.117647%, 38.431373%)" fill-opacity="0.701961" stroke-width="0.75" stroke-linecap="round" stroke-linejoin="round" stroke="rgb(0%, 0%, 0%)" stroke-opacity="1" stroke-miterlimit="10" d="M 88.339844 26.398438 L 94.101562 26.398438 L 94.101562 31.199219 L 88.339844 31.199219 Z M 88.339844 26.398438 "/>
<path fill-rule="nonzero" fill="rgb(60%, 60%, 60%)" fill-opacity="0.701961" stroke-width="0.75" stroke-linecap="round" stroke-linejoin="round" stroke="rgb(0%, 0%, 0%)" stroke-opacity="1" stroke-miterlimit="10" d="M 88.339844 36 L 94.101562 36 L 94.101562 40.800781 L 88.339844 40.800781 Z M 88.339844 36 "/>
<g fill="rgb(0%, 0%, 0%)" fill-opacity="1">
<use xlink:href="#glyph-0-7" x="101.300781" y="31.672852"/>
<use xlink:href="#glyph-0-8" x="105.300781" y="31.672852"/>
<use xlink:href="#glyph-0-9" x="108.300781" y="31.672852"/>
<use xlink:href="#glyph-0-10" x="112.300781" y="31.672852"/>
<use xlink:href="#glyph-0-11" x="116.300781" y="31.672852"/>
<use xlink:href="#glyph-0-12" x="118.300781" y="31.672852"/>
</g>
<g fill="rgb(0%, 0%, 0%)" fill-opacity="1">
<use xlink:href="#glyph-0-13" x="101.300781" y="41.270508"/>
<use xlink:href="#glyph-0-9" x="105.300781" y="41.270508"/>
<use xlink:href="#glyph-0-14" x="109.300781" y="41.270508"/>
<use xlink:href="#glyph-0-15" x="112.300781" y="41.270508"/>
<use xlink:href="#glyph-0-9" x="114.300781" y="41.270508"/>
<use xlink:href="#glyph-0-10" x="118.300781" y="41.270508"/>
<use xlink:href="#glyph-0-11" x="122.300781" y="41.270508"/>
<use xlink:href="#glyph-0-12" x="124.300781" y="41.270508"/>
</g>
<path fill-rule="nonzero" fill="rgb(60%, 60%, 60%)" fill-opacity="0.701961" stroke-width="0.75" stroke-linecap="round" stroke-linejoin="round" stroke="rgb(0%, 0%, 0%)" stroke-opacity="1" stroke-miterlimit="10" d="M 41.863281 127.4375 L 52.683594 127.4375 L 52.683594 110.785156 L 41.863281 110.785156 Z M 41.863281 127.4375 "/>
<path fill-rule="nonzero" fill="rgb(60%, 60%, 60%)" fill-opacity="0.701961" stroke-width="0.75" stroke-linecap="round" stroke-linejoin="round" stroke="rgb(0%, 0%, 0%)" stroke-opacity="1" stroke-miterlimit="10" d="M 52.683594 127.4375 L 63.503906 127.4375 L 63.503906 81.644531 L 52.683594 81.644531 Z M 52.683594 127.4375 "/>
<path fill-rule="nonzero" fill="rgb(60%, 60%, 60%)" fill-opacity="0.701961" stroke-width="0.75" stroke-linecap="round" stroke-linejoin="round" stroke="rgb(0%, 0%, 0%)" stroke-opacity="1" stroke-miterlimit="10" d="M 63.507812 127.4375 L 74.328125 127.4375 L 74.328125 56.667969 L 63.507812 56.667969 Z M 63.507812 127.4375 "/>
<path fill-rule="nonzero" fill="rgb(60%, 60%, 60%)" fill-opacity="0.701961" stroke-width="0.75" stroke-linecap="round" stroke-linejoin="round" stroke="rgb(0%, 0%, 0%)" stroke-opacity="1" stroke-miterlimit="10" d="M 74.328125 127.4375 L 85.148438 127.4375 L 85.148438 102.460938 L 74.328125 102.460938 Z M 74.328125 127.4375 "/>
<path fill-rule="nonzero" fill="rgb(60%, 60%, 60%)" fill-opacity="0.701961" stroke-width="0.75" stroke-linecap="round" stroke-linejoin="round" stroke="rgb(0%, 0%, 0%)" stroke-opacity="1" stroke-miterlimit="10" d="M 85.148438 127.4375 L 95.96875 127.4375 L 95.96875 119.113281 L 85.148438 119.113281 Z M 85.148438 127.4375 "/>
<path fill-rule="nonzero" fill="rgb(60%, 60%, 60%)" fill-opacity="0.701961" stroke-width="0.75" stroke-linecap="round" stroke-linejoin="round" stroke="rgb(0%, 0%, 0%)" stroke-opacity="1" stroke-miterlimit="10" d="M 95.972656 127.4375 L 106.792969 127.4375 L 106.792969 106.621094 L 95.972656 106.621094 Z M 95.972656 127.4375 "/>
<path fill-rule="nonzero" fill="rgb(60%, 60%, 60%)" fill-opacity="0.701961" stroke-width="0.75" stroke-linecap="round" stroke-linejoin="round" stroke="rgb(0%, 0%, 0%)" stroke-opacity="1" stroke-miterlimit="10" d="M 106.792969 127.4375 L 117.613281 127.4375 L 117.613281 106.621094 L 106.792969 106.621094 Z M 106.792969 127.4375 "/>
<g fill="rgb(0%, 0%, 0%)" fill-opacity="1">
<use xlink:href="#glyph-0-0" x="222.648438" y="167.950195"/>
<use xlink:href="#glyph-0-1" x="226.648438" y="167.950195"/>
</g>
<path fill-rule="nonzero" fill="rgb(93.72549%, 54.117647%, 38.431373%)" fill-opacity="0.701961" stroke-width="0.75" stroke-linecap="round" stroke-linejoin="round" stroke="rgb(0%, 0%, 0%)" stroke-opacity="1" stroke-miterlimit="10" d="M 183.363281 127.4375 L 194.183594 127.4375 L 194.183594 102.460938 L 183.363281 102.460938 Z M 183.363281 127.4375 "/>
<path fill-rule="nonzero" fill="rgb(93.72549%, 54.117647%, 38.431373%)" fill-opacity="0.701961" stroke-width="0.75" stroke-linecap="round" stroke-linejoin="round" stroke="rgb(0%, 0%, 0%)" stroke-opacity="1" stroke-miterlimit="10" d="M 194.183594 127.4375 L 205.003906 127.4375 L 205.003906 40.015625 L 194.183594 40.015625 Z M 194.183594 127.4375 "/>
<path fill-rule="nonzero" fill="rgb(93.72549%, 54.117647%, 38.431373%)" fill-opacity="0.701961" stroke-width="0.75" stroke-linecap="round" stroke-linejoin="round" stroke="rgb(0%, 0%, 0%)" stroke-opacity="1" stroke-miterlimit="10" d="M 205.007812 127.4375 L 215.828125 127.4375 L 215.828125 85.808594 L 205.007812 85.808594 Z M 205.007812 127.4375 "/>
<path fill-rule="nonzero" fill="rgb(93.72549%, 54.117647%, 38.431373%)" fill-opacity="0.701961" stroke-width="0.75" stroke-linecap="round" stroke-linejoin="round" stroke="rgb(0%, 0%, 0%)" stroke-opacity="1" stroke-miterlimit="10" d="M 215.828125 127.4375 L 226.648438 127.4375 L 226.648438 106.621094 L 215.828125 106.621094 Z M 215.828125 127.4375 "/>
<path fill-rule="nonzero" fill="rgb(93.72549%, 54.117647%, 38.431373%)" fill-opacity="0.701961" stroke-width="0.75" stroke-linecap="round" stroke-linejoin="round" stroke="rgb(0%, 0%, 0%)" stroke-opacity="1" stroke-miterlimit="10" d="M 226.648438 127.4375 L 237.46875 127.4375 L 237.46875 114.949219 L 226.648438 114.949219 Z M 226.648438 127.4375 "/>
<path fill-rule="nonzero" fill="rgb(93.72549%, 54.117647%, 38.431373%)" fill-opacity="0.701961" stroke-width="0.75" stroke-linecap="round" stroke-linejoin="round" stroke="rgb(0%, 0%, 0%)" stroke-opacity="1" stroke-miterlimit="10" d="M 237.472656 127.4375 L 248.292969 127.4375 L 248.292969 106.621094 L 237.472656 106.621094 Z M 237.472656 127.4375 "/>
<path fill="none" stroke-width="0.75" stroke-linecap="round" stroke-linejoin="round" stroke="rgb(0%, 0%, 0%)" stroke-opacity="1" stroke-miterlimit="10" d="M 183.363281 131.601562 L 269.9375 131.601562 "/>
<path fill="none" stroke-width="0.75" stroke-linecap="round" stroke-linejoin="round" stroke="rgb(0%, 0%, 0%)" stroke-opacity="1" stroke-miterlimit="10" d="M 183.363281 131.601562 L 183.363281 136.398438 "/>
<path fill="none" stroke-width="0.75" stroke-linecap="round" stroke-linejoin="round" stroke="rgb(0%, 0%, 0%)" stroke-opacity="1" stroke-miterlimit="10" d="M 226.648438 131.601562 L 226.648438 136.398438 "/>
<path fill="none" stroke-width="0.75" stroke-linecap="round" stroke-linejoin="round" stroke="rgb(0%, 0%, 0%)" stroke-opacity="1" stroke-miterlimit="10" d="M 269.9375 131.601562 L 269.9375 136.398438 "/>
<g fill="rgb(0%, 0%, 0%)" fill-opacity="1">
<use xlink:href="#glyph-1-4" x="186.235352" y="145.199219"/>
</g>
<g fill="rgb(0%, 0%, 0%)" fill-opacity="1">
<use xlink:href="#glyph-1-5" x="229.520508" y="149.199219"/>
<use xlink:href="#glyph-1-4" x="229.520508" y="145.199219"/>
</g>
<g fill="rgb(0%, 0%, 0%)" fill-opacity="1">
<use xlink:href="#glyph-1-6" x="272.80957" y="149.199219"/>
<use xlink:href="#glyph-1-4" x="272.80957" y="145.199219"/>
</g>
<path fill="none" stroke-width="0.75" stroke-linecap="round" stroke-linejoin="round" stroke="rgb(0%, 0%, 0%)" stroke-opacity="1" stroke-miterlimit="10" d="M 179.898438 127.4375 L 179.898438 23.363281 "/>
<path fill="none" stroke-width="0.75" stroke-linecap="round" stroke-linejoin="round" stroke="rgb(0%, 0%, 0%)" stroke-opacity="1" stroke-miterlimit="10" d="M 179.898438 127.4375 L 175.101562 127.4375 "/>
<path fill="none" stroke-width="0.75" stroke-linecap="round" stroke-linejoin="round" stroke="rgb(0%, 0%, 0%)" stroke-opacity="1" stroke-miterlimit="10" d="M 179.898438 106.621094 L 175.101562 106.621094 "/>
<path fill="none" stroke-width="0.75" stroke-linecap="round" stroke-linejoin="round" stroke="rgb(0%, 0%, 0%)" stroke-opacity="1" stroke-miterlimit="10" d="M 179.898438 85.808594 L 175.101562 85.808594 "/>
<path fill="none" stroke-width="0.75" stroke-linecap="round" stroke-linejoin="round" stroke="rgb(0%, 0%, 0%)" stroke-opacity="1" stroke-miterlimit="10" d="M 179.898438 64.992188 L 175.101562 64.992188 "/>
<path fill="none" stroke-width="0.75" stroke-linecap="round" stroke-linejoin="round" stroke="rgb(0%, 0%, 0%)" stroke-opacity="1" stroke-miterlimit="10" d="M 179.898438 44.179688 L 175.101562 44.179688 "/>
<path fill="none" stroke-width="0.75" stroke-linecap="round" stroke-linejoin="round" stroke="rgb(0%, 0%, 0%)" stroke-opacity="1" stroke-miterlimit="10" d="M 179.898438 23.363281 L 175.101562 23.363281 "/>
<g fill="rgb(0%, 0%, 0%)" fill-opacity="1">
<use xlink:href="#glyph-0-2" x="166.300781" y="130.30957"/>
</g>
<g fill="rgb(0%, 0%, 0%)" fill-opacity="1">
<use xlink:href="#glyph-0-3" x="166.300781" y="109.493164"/>
</g>
<g fill="rgb(0%, 0%, 0%)" fill-opacity="1">
<use xlink:href="#glyph-0-4" x="162.300781" y="88.680664"/>
<use xlink:href="#glyph-0-2" x="166.300781" y="88.680664"/>
</g>
<g fill="rgb(0%, 0%, 0%)" fill-opacity="1">
<use xlink:href="#glyph-0-4" x="162.300781" y="67.864258"/>
<use xlink:href="#glyph-0-3" x="166.300781" y="67.864258"/>
</g>
<g fill="rgb(0%, 0%, 0%)" fill-opacity="1">
<use xlink:href="#glyph-0-5" x="162.300781" y="47.051758"/>
<use xlink:href="#glyph-0-2" x="166.300781" y="47.051758"/>
</g>
<g fill="rgb(0%, 0%, 0%)" fill-opacity="1">
<use xlink:href="#glyph-0-5" x="162.300781" y="26.235352"/>
<use xlink:href="#glyph-0-3" x="166.300781" y="26.235352"/>
</g>
<g fill="rgb(0%, 0%, 0%)" fill-opacity="1">
<use xlink:href="#glyph-0-16" x="142" y="6.473633"/>
</g>
<path fill-rule="nonzero" fill="rgb(60%, 60%, 60%)" fill-opacity="0.701961" stroke-width="0.75" stroke-linecap="round" stroke-linejoin="round" stroke="rgb(0%, 0%, 0%)" stroke-opacity="1" stroke-miterlimit="10" d="M 183.363281 127.4375 L 194.183594 127.4375 L 194.183594 119.113281 L 183.363281 119.113281 Z M 183.363281 127.4375 "/>
<path fill-rule="nonzero" fill="rgb(60%, 60%, 60%)" fill-opacity="0.701961" stroke-width="0.75" stroke-linecap="round" stroke-linejoin="round" stroke="rgb(0%, 0%, 0%)" stroke-opacity="1" stroke-miterlimit="10" d="M 194.183594 127.4375 L 205.003906 127.4375 L 205.003906 89.972656 L 194.183594 89.972656 Z M 194.183594 127.4375 "/>
<path fill-rule="nonzero" fill="rgb(60%, 60%, 60%)" fill-opacity="0.701961" stroke-width="0.75" stroke-linecap="round" stroke-linejoin="round" stroke="rgb(0%, 0%, 0%)" stroke-opacity="1" stroke-miterlimit="10" d="M 205.007812 127.4375 L 215.828125 127.4375 L 215.828125 64.992188 L 205.007812 64.992188 Z M 205.007812 127.4375 "/>
<path fill-rule="nonzero" fill="rgb(60%, 60%, 60%)" fill-opacity="0.701961" stroke-width="0.75" stroke-linecap="round" stroke-linejoin="round" stroke="rgb(0%, 0%, 0%)" stroke-opacity="1" stroke-miterlimit="10" d="M 215.828125 127.4375 L 226.648438 127.4375 L 226.648438 102.460938 L 215.828125 102.460938 Z M 215.828125 127.4375 "/>
<path fill-rule="nonzero" fill="rgb(60%, 60%, 60%)" fill-opacity="0.701961" stroke-width="0.75" stroke-linecap="round" stroke-linejoin="round" stroke="rgb(0%, 0%, 0%)" stroke-opacity="1" stroke-miterlimit="10" d="M 226.648438 127.4375 L 237.46875 127.4375 L 237.46875 123.273438 L 226.648438 123.273438 Z M 226.648438 127.4375 "/>
<path fill-rule="nonzero" fill="rgb(60%, 60%, 60%)" fill-opacity="0.701961" stroke-width="0.75" stroke-linecap="round" stroke-linejoin="round" stroke="rgb(0%, 0%, 0%)" stroke-opacity="1" stroke-miterlimit="10" d="M 237.472656 127.4375 L 248.292969 127.4375 L 248.292969 89.972656 L 237.472656 89.972656 Z M 237.472656 127.4375 "/>
<path fill-rule="nonzero" fill="rgb(60%, 60%, 60%)" fill-opacity="0.701961" stroke-width="0.75" stroke-linecap="round" stroke-linejoin="round" stroke="rgb(0%, 0%, 0%)" stroke-opacity="1" stroke-miterlimit="10" d="M 248.292969 127.4375 L 259.113281 127.4375 L 259.113281 94.132812 L 248.292969 94.132812 Z M 248.292969 127.4375 "/>
</svg>
