<?xml version="1.0" encoding="UTF-8"?>
<svg xmlns="http://www.w3.org/2000/svg" xmlns:xlink="http://www.w3.org/1999/xlink" width="708pt" height="425pt" viewBox="0 0 708 425">
<defs>
<g>
<g id="glyph-0-0">
<path d="M 4.078125 0 L 4.078125 -10.53125 L 0.5 -10.53125 L 0.5 -11.8125 L 9.15625 -11.8125 L 9.15625 -10.53125 L 5.578125 -10.53125 L 5.578125 0 Z M 4.078125 0 "/>
</g>
<g id="glyph-0-1">
<path d="M 1.609375 0 L 1.609375 -11.8125 L 8.421875 -11.8125 L 8.421875 -10.546875 L 3.125 -10.546875 L 3.125 -6.84375 L 7.59375 -6.84375 L 7.59375 -5.5625 L 3.125 -5.5625 L 3.125 -1.265625 L 8.609375 -1.265625 L 8.609375 0 Z M 1.609375 0 "/>
</g>
<g id="glyph-0-2">
<path d="M 4.46875 0.21875 C 3.320312 0.21875 2.421875 -0.296875 1.765625 -1.328125 C 1.117188 -2.367188 0.796875 -3.851562 0.796875 -5.78125 C 0.796875 -7.707031 1.117188 -9.175781 1.765625 -10.1875 C 2.421875 -11.195312 3.320312 -11.703125 4.46875 -11.703125 C 5.613281 -11.703125 6.515625 -11.195312 7.171875 -10.1875 C 7.828125 -9.175781 8.15625 -7.707031 8.15625 -5.78125 C 8.15625 -3.851562 7.828125 -2.367188 7.171875 -1.328125 C 6.515625 -0.296875 5.613281 0.21875 4.46875 0.21875 Z M 4.46875 -0.984375 C 4.914062 -0.984375 5.304688 -1.144531 5.640625 -1.46875 C 5.984375 -1.800781 6.25 -2.320312 6.4375 -3.03125 C 6.625 -3.738281 6.71875 -4.65625 6.71875 -5.78125 C 6.71875 -6.90625 6.625 -7.8125 6.4375 -8.5 C 6.25 -9.195312 5.984375 -9.703125 5.640625 -10.015625 C 5.304688 -10.335938 4.914062 -10.5 4.46875 -10.5 C 4.03125 -10.5 3.640625 -10.335938 3.296875 -10.015625 C 2.960938 -9.703125 2.703125 -9.195312 2.515625 -8.5 C 2.328125 -7.8125 2.234375 -6.90625 2.234375 -5.78125 C 2.234375 -4.65625 2.328125 -3.738281 2.515625 -3.03125 C 2.703125 -2.320312 2.960938 -1.800781 3.296875 -1.46875 C 3.640625 -1.144531 4.03125 -0.984375 4.46875 -0.984375 Z M 4.46875 -0.984375 "/>
</g>
<g id="glyph-0-3">
<path d="M 4.21875 0.21875 C 3.601562 0.21875 3.0625 0.144531 2.59375 0 C 2.125 -0.15625 1.710938 -0.351562 1.359375 -0.59375 C 1.015625 -0.832031 0.707031 -1.085938 0.4375 -1.359375 L 1.171875 -2.328125 C 1.515625 -1.984375 1.914062 -1.675781 2.375 -1.40625 C 2.832031 -1.144531 3.394531 -1.015625 4.0625 -1.015625 C 4.53125 -1.015625 4.953125 -1.117188 5.328125 -1.328125 C 5.710938 -1.546875 6.015625 -1.847656 6.234375 -2.234375 C 6.460938 -2.628906 6.578125 -3.09375 6.578125 -3.625 C 6.578125 -4.425781 6.351562 -5.046875 5.90625 -5.484375 C 5.46875 -5.929688 4.878906 -6.15625 4.140625 -6.15625 C 3.753906 -6.15625 3.414062 -6.09375 3.125 -5.96875 C 2.832031 -5.851562 2.515625 -5.679688 2.171875 -5.453125 L 1.390625 -5.953125 L 1.765625 -11.484375 L 7.515625 -11.484375 L 7.515625 -10.203125 L 3.0625 -10.203125 L 2.765625 -6.796875 C 3.035156 -6.941406 3.304688 -7.054688 3.578125 -7.140625 C 3.859375 -7.234375 4.175781 -7.28125 4.53125 -7.28125 C 5.175781 -7.28125 5.769531 -7.148438 6.3125 -6.890625 C 6.851562 -6.640625 7.28125 -6.25 7.59375 -5.71875 C 7.914062 -5.1875 8.078125 -4.507812 8.078125 -3.6875 C 8.078125 -2.851562 7.894531 -2.144531 7.53125 -1.5625 C 7.164062 -0.976562 6.6875 -0.535156 6.09375 -0.234375 C 5.507812 0.0664062 4.882812 0.21875 4.21875 0.21875 Z M 4.21875 0.21875 "/>
</g>
<g id="glyph-0-4">
<path d="M 1.421875 0 L 1.421875 -1.234375 L 4.046875 -1.234375 L 4.046875 -9.6875 L 1.953125 -9.6875 L 1.953125 -10.640625 C 2.484375 -10.734375 2.941406 -10.847656 3.328125 -10.984375 C 3.722656 -11.128906 4.078125 -11.296875 4.390625 -11.484375 L 5.53125 -11.484375 L 5.53125 -1.234375 L 7.890625 -1.234375 L 7.890625 0 Z M 1.421875 0 "/>
</g>
<g id="glyph-0-5">
<path d="M 0.046875 0 L 4.046875 -11.8125 L 5.734375 -11.8125 L 9.734375 0 L 8.15625 0 L 6.078125 -6.59375 C 5.867188 -7.257812 5.664062 -7.921875 5.46875 -8.578125 C 5.28125 -9.234375 5.09375 -9.898438 4.90625 -10.578125 L 4.828125 -10.578125 C 4.648438 -9.890625 4.460938 -9.21875 4.265625 -8.5625 C 4.078125 -7.914062 3.875 -7.257812 3.65625 -6.59375 L 1.578125 0 Z M 2.15625 -3.59375 L 2.15625 -4.796875 L 7.59375 -4.796875 L 7.59375 -3.59375 Z M 2.15625 -3.59375 "/>
</g>
<g id="glyph-0-6">
<path d="M 4.890625 0.21875 C 4.054688 0.21875 3.289062 0.0625 2.59375 -0.25 C 1.894531 -0.570312 1.285156 -1.003906 0.765625 -1.546875 L 1.609375 -2.515625 C 2.023438 -2.078125 2.519531 -1.734375 3.09375 -1.484375 C 3.675781 -1.234375 4.285156 -1.109375 4.921875 -1.109375 C 5.691406 -1.109375 6.296875 -1.28125 6.734375 -1.625 C 7.171875 -1.976562 7.390625 -2.445312 7.390625 -3.03125 C 7.390625 -3.425781 7.300781 -3.742188 7.125 -3.984375 C 6.945312 -4.234375 6.710938 -4.441406 6.421875 -4.609375 C 6.128906 -4.773438 5.796875 -4.941406 5.421875 -5.109375 L 3.71875 -5.84375 C 3.34375 -6.007812 2.96875 -6.21875 2.59375 -6.46875 C 2.226562 -6.726562 1.925781 -7.050781 1.6875 -7.4375 C 1.445312 -7.832031 1.328125 -8.316406 1.328125 -8.890625 C 1.328125 -9.492188 1.484375 -10.03125 1.796875 -10.5 C 2.117188 -10.96875 2.5625 -11.335938 3.125 -11.609375 C 3.6875 -11.890625 4.328125 -12.03125 5.046875 -12.03125 C 5.765625 -12.03125 6.421875 -11.894531 7.015625 -11.625 C 7.609375 -11.351562 8.113281 -11.007812 8.53125 -10.59375 L 7.71875 -9.625 C 7.34375 -9.957031 6.929688 -10.21875 6.484375 -10.40625 C 6.046875 -10.601562 5.566406 -10.703125 5.046875 -10.703125 C 4.390625 -10.703125 3.859375 -10.546875 3.453125 -10.234375 C 3.046875 -9.929688 2.84375 -9.515625 2.84375 -8.984375 C 2.84375 -8.609375 2.9375 -8.300781 3.125 -8.0625 C 3.320312 -7.820312 3.570312 -7.625 3.875 -7.46875 C 4.1875 -7.3125 4.492188 -7.164062 4.796875 -7.03125 L 6.484375 -6.296875 C 6.953125 -6.097656 7.367188 -5.863281 7.734375 -5.59375 C 8.097656 -5.332031 8.382812 -5.003906 8.59375 -4.609375 C 8.8125 -4.210938 8.921875 -3.722656 8.921875 -3.140625 C 8.921875 -2.515625 8.757812 -1.945312 8.4375 -1.4375 C 8.113281 -0.9375 7.648438 -0.535156 7.046875 -0.234375 C 6.441406 0.0664062 5.722656 0.21875 4.890625 0.21875 Z M 4.890625 0.21875 "/>
</g>
<g id="glyph-0-7">
<path d="M 4.234375 0.171875 C 3.296875 0.171875 2.644531 -0.0976562 2.28125 -0.640625 C 1.914062 -1.191406 1.734375 -1.898438 1.734375 -2.765625 L 1.734375 -7.546875 L 0.421875 -7.546875 L 0.421875 -8.671875 L 1.796875 -8.75 L 1.984375 -11.5625 L 3.21875 -11.5625 L 3.21875 -8.75 L 5.59375 -8.75 L 5.59375 -7.546875 L 3.21875 -7.546875 L 3.21875 -2.734375 C 3.21875 -2.203125 3.316406 -1.785156 3.515625 -1.484375 C 3.710938 -1.191406 4.0625 -1.046875 4.5625 -1.046875 C 4.726562 -1.046875 4.890625 -1.0625 5.046875 -1.09375 C 5.210938 -1.125 5.382812 -1.179688 5.5625 -1.265625 L 5.875 -0.21875 C 5.644531 -0.101562 5.390625 -0.0078125 5.109375 0.0625 C 4.828125 0.132812 4.535156 0.171875 4.234375 0.171875 Z M 4.234375 0.171875 "/>
</g>
<g id="glyph-0-8">
<path d="M 3.5 0.21875 C 3.007812 0.21875 2.566406 0.117188 2.171875 -0.078125 C 1.785156 -0.273438 1.476562 -0.554688 1.25 -0.921875 C 1.03125 -1.296875 0.921875 -1.742188 0.921875 -2.265625 C 0.921875 -3.253906 1.351562 -4 2.21875 -4.5 C 3.082031 -5.007812 4.445312 -5.363281 6.3125 -5.5625 C 6.3125 -5.925781 6.257812 -6.273438 6.15625 -6.609375 C 6.050781 -6.941406 5.863281 -7.207031 5.59375 -7.40625 C 5.332031 -7.613281 4.96875 -7.71875 4.5 -7.71875 C 4 -7.71875 3.523438 -7.625 3.078125 -7.4375 C 2.628906 -7.25 2.234375 -7.046875 1.890625 -6.828125 L 1.3125 -7.84375 C 1.582031 -8.019531 1.894531 -8.191406 2.25 -8.359375 C 2.601562 -8.535156 2.988281 -8.679688 3.40625 -8.796875 C 3.832031 -8.910156 4.28125 -8.96875 4.75 -8.96875 C 5.457031 -8.96875 6.035156 -8.816406 6.484375 -8.515625 C 6.929688 -8.222656 7.257812 -7.804688 7.46875 -7.265625 C 7.6875 -6.722656 7.796875 -6.085938 7.796875 -5.359375 L 7.796875 0 L 6.5625 0 L 6.4375 -1.046875 L 6.390625 -1.046875 C 5.960938 -0.703125 5.507812 -0.40625 5.03125 -0.15625 C 4.550781 0.09375 4.039062 0.21875 3.5 0.21875 Z M 3.90625 -1.015625 C 4.332031 -1.015625 4.734375 -1.109375 5.109375 -1.296875 C 5.492188 -1.484375 5.894531 -1.765625 6.3125 -2.140625 L 6.3125 -4.5 C 5.332031 -4.382812 4.554688 -4.226562 3.984375 -4.03125 C 3.410156 -3.84375 3 -3.609375 2.75 -3.328125 C 2.507812 -3.054688 2.390625 -2.734375 2.390625 -2.359375 C 2.390625 -1.878906 2.535156 -1.535156 2.828125 -1.328125 C 3.128906 -1.117188 3.488281 -1.015625 3.90625 -1.015625 Z M 3.90625 -1.015625 "/>
</g>
<g id="glyph-0-9">
<path d="M 5.34375 0.21875 C 4.9375 0.21875 4.515625 0.117188 4.078125 -0.078125 C 3.648438 -0.273438 3.238281 -0.550781 2.84375 -0.90625 L 2.796875 -0.90625 L 2.65625 0 L 1.46875 0 L 1.46875 -12.828125 L 2.953125 -12.828125 L 2.953125 -9.3125 L 2.90625 -7.75 C 3.3125 -8.09375 3.75 -8.378906 4.21875 -8.609375 C 4.6875 -8.847656 5.164062 -8.96875 5.65625 -8.96875 C 6.40625 -8.96875 7.039062 -8.78125 7.5625 -8.40625 C 8.082031 -8.039062 8.472656 -7.523438 8.734375 -6.859375 C 8.992188 -6.191406 9.125 -5.410156 9.125 -4.515625 C 9.125 -3.515625 8.945312 -2.660156 8.59375 -1.953125 C 8.238281 -1.253906 7.773438 -0.71875 7.203125 -0.34375 C 6.628906 0.03125 6.007812 0.21875 5.34375 0.21875 Z M 5.09375 -1.03125 C 5.570312 -1.03125 6 -1.164062 6.375 -1.4375 C 6.757812 -1.71875 7.0625 -2.117188 7.28125 -2.640625 C 7.5 -3.160156 7.609375 -3.78125 7.609375 -4.5 C 7.609375 -5.132812 7.523438 -5.691406 7.359375 -6.171875 C 7.203125 -6.660156 6.957031 -7.039062 6.625 -7.3125 C 6.289062 -7.582031 5.847656 -7.71875 5.296875 -7.71875 C 4.929688 -7.71875 4.550781 -7.617188 4.15625 -7.421875 C 3.769531 -7.222656 3.367188 -6.925781 2.953125 -6.53125 L 2.953125 -1.9375 C 3.335938 -1.601562 3.71875 -1.367188 4.09375 -1.234375 C 4.46875 -1.097656 4.800781 -1.03125 5.09375 -1.03125 Z M 5.09375 -1.03125 "/>
</g>
<g id="glyph-0-10">
<path d="M 3.046875 0.171875 C 2.671875 0.171875 2.367188 0.0976562 2.140625 -0.046875 C 1.910156 -0.203125 1.738281 -0.425781 1.625 -0.71875 C 1.519531 -1.019531 1.46875 -1.378906 1.46875 -1.796875 L 1.46875 -12.8125 L 2.953125 -12.8125 L 2.953125 -1.6875 C 2.953125 -1.457031 2.992188 -1.296875 3.078125 -1.203125 C 3.171875 -1.109375 3.273438 -1.0625 3.390625 -1.0625 C 3.429688 -1.0625 3.472656 -1.0625 3.515625 -1.0625 C 3.554688 -1.070312 3.613281 -1.085938 3.6875 -1.109375 L 3.90625 0.015625 C 3.800781 0.0546875 3.675781 0.09375 3.53125 0.125 C 3.394531 0.15625 3.234375 0.171875 3.046875 0.171875 Z M 3.046875 0.171875 "/>
</g>
<g id="glyph-0-11">
<path d="M 5.03125 0.21875 C 4.238281 0.21875 3.523438 0.0351562 2.890625 -0.328125 C 2.253906 -0.691406 1.75 -1.210938 1.375 -1.890625 C 1 -2.578125 0.8125 -3.40625 0.8125 -4.375 C 0.8125 -5.320312 1 -6.140625 1.375 -6.828125 C 1.757812 -7.515625 2.253906 -8.039062 2.859375 -8.40625 C 3.460938 -8.78125 4.097656 -8.96875 4.765625 -8.96875 C 5.515625 -8.96875 6.148438 -8.796875 6.671875 -8.453125 C 7.191406 -8.117188 7.582031 -7.644531 7.84375 -7.03125 C 8.113281 -6.414062 8.25 -5.691406 8.25 -4.859375 C 8.25 -4.710938 8.242188 -4.5625 8.234375 -4.40625 C 8.222656 -4.257812 8.203125 -4.113281 8.171875 -3.96875 L 1.875 -3.96875 L 1.875 -5.140625 L 6.921875 -5.140625 C 6.921875 -5.992188 6.734375 -6.644531 6.359375 -7.09375 C 5.992188 -7.539062 5.472656 -7.765625 4.796875 -7.765625 C 4.390625 -7.765625 3.992188 -7.648438 3.609375 -7.421875 C 3.234375 -7.203125 2.921875 -6.84375 2.671875 -6.34375 C 2.421875 -5.851562 2.296875 -5.203125 2.296875 -4.390625 C 2.296875 -3.640625 2.425781 -3.015625 2.6875 -2.515625 C 2.945312 -2.015625 3.296875 -1.632812 3.734375 -1.375 C 4.179688 -1.125 4.671875 -1 5.203125 -1 C 5.617188 -1 6.007812 -1.054688 6.375 -1.171875 C 6.738281 -1.285156 7.070312 -1.445312 7.375 -1.65625 L 7.90625 -0.671875 C 7.53125 -0.410156 7.101562 -0.195312 6.625 -0.03125 C 6.15625 0.132812 5.625 0.21875 5.03125 0.21875 Z M 5.03125 0.21875 "/>
</g>
<g id="glyph-0-12">
<path d="M 3.703125 0 L 0 -11.8125 L 1.59375 -11.8125 L 3.421875 -5.421875 C 3.554688 -4.953125 3.679688 -4.507812 3.796875 -4.09375 C 3.921875 -3.675781 4.046875 -3.257812 4.171875 -2.84375 C 4.296875 -2.4375 4.425781 -2 4.5625 -1.53125 L 4.640625 -1.53125 C 4.773438 -2 4.898438 -2.4375 5.015625 -2.84375 C 5.128906 -3.257812 5.25 -3.675781 5.375 -4.09375 C 5.5 -4.507812 5.632812 -4.953125 5.78125 -5.421875 L 7.734375 -11.8125 L 9.265625 -11.8125 L 5.453125 0 Z M 3.703125 0 "/>
</g>
<g id="glyph-0-13">
<path d="M 1.46875 0 L 1.46875 -8.75 L 2.703125 -8.75 L 2.828125 -7.15625 L 2.875 -7.15625 C 3.175781 -7.71875 3.539062 -8.160156 3.96875 -8.484375 C 4.394531 -8.804688 4.859375 -8.96875 5.359375 -8.96875 C 5.554688 -8.96875 5.726562 -8.953125 5.875 -8.921875 C 6.019531 -8.898438 6.160156 -8.851562 6.296875 -8.78125 L 5.96875 -7.515625 C 5.84375 -7.554688 5.722656 -7.582031 5.609375 -7.59375 C 5.492188 -7.613281 5.347656 -7.625 5.171875 -7.625 C 4.796875 -7.625 4.40625 -7.472656 4 -7.171875 C 3.601562 -6.878906 3.253906 -6.363281 2.953125 -5.625 L 2.953125 0 Z M 1.46875 0 "/>
</g>
<g id="glyph-0-14">
<path d="M 1.46875 0 L 1.46875 -8.75 L 2.953125 -8.75 L 2.953125 0 Z M 2.21875 -10.546875 C 1.9375 -10.546875 1.703125 -10.632812 1.515625 -10.8125 C 1.328125 -11 1.234375 -11.238281 1.234375 -11.53125 C 1.234375 -11.8125 1.328125 -12.039062 1.515625 -12.21875 C 1.703125 -12.394531 1.9375 -12.484375 2.21875 -12.484375 C 2.507812 -12.484375 2.742188 -12.394531 2.921875 -12.21875 C 3.109375 -12.039062 3.203125 -11.8125 3.203125 -11.53125 C 3.203125 -11.238281 3.109375 -11 2.921875 -10.8125 C 2.742188 -10.632812 2.507812 -10.546875 2.21875 -10.546875 Z M 2.21875 -10.546875 "/>
</g>
<g id="glyph-0-15">
<path d="M 1.609375 0 L 1.609375 -11.8125 L 5.125 -11.8125 C 5.925781 -11.8125 6.628906 -11.710938 7.234375 -11.515625 C 7.847656 -11.328125 8.328125 -11.019531 8.671875 -10.59375 C 9.015625 -10.164062 9.1875 -9.609375 9.1875 -8.921875 C 9.1875 -8.316406 9.035156 -7.78125 8.734375 -7.3125 C 8.441406 -6.851562 8.015625 -6.535156 7.453125 -6.359375 L 7.453125 -6.28125 C 8.191406 -6.144531 8.773438 -5.847656 9.203125 -5.390625 C 9.640625 -4.929688 9.859375 -4.304688 9.859375 -3.515625 C 9.859375 -2.722656 9.671875 -2.066406 9.296875 -1.546875 C 8.921875 -1.023438 8.394531 -0.632812 7.71875 -0.375 C 7.039062 -0.125 6.265625 0 5.390625 0 Z M 3.125 -6.78125 L 4.875 -6.78125 C 5.875 -6.78125 6.59375 -6.953125 7.03125 -7.296875 C 7.476562 -7.648438 7.703125 -8.125 7.703125 -8.71875 C 7.703125 -9.414062 7.46875 -9.90625 7 -10.1875 C 6.539062 -10.476562 5.851562 -10.625 4.9375 -10.625 L 3.125 -10.625 Z M 3.125 -1.1875 L 5.171875 -1.1875 C 6.179688 -1.1875 6.96875 -1.375 7.53125 -1.75 C 8.101562 -2.125 8.390625 -2.710938 8.390625 -3.515625 C 8.390625 -4.242188 8.113281 -4.78125 7.5625 -5.125 C 7.007812 -5.46875 6.210938 -5.640625 5.171875 -5.640625 L 3.125 -5.640625 Z M 3.125 -1.1875 "/>
</g>
<g id="glyph-1-0">
<path d="M 0 -1.71875 L -10.125 -1.71875 C -10.726562 -1.71875 -11.242188 -1.804688 -11.671875 -1.984375 C -12.109375 -2.171875 -12.445312 -2.453125 -12.6875 -2.828125 C -12.925781 -3.210938 -13.046875 -3.695312 -13.046875 -4.28125 C -13.046875 -4.550781 -13.015625 -4.8125 -12.953125 -5.0625 C -12.898438 -5.320312 -12.828125 -5.546875 -12.734375 -5.734375 L -11.65625 -5.40625 C -11.769531 -5.070312 -11.828125 -4.75 -11.828125 -4.4375 C -11.828125 -4.019531 -11.679688 -3.707031 -11.390625 -3.5 C -11.109375 -3.300781 -10.6875 -3.203125 -10.125 -3.203125 L 0 -3.203125 Z M -7.546875 -0.4375 L -8.671875 -0.4375 L -8.75 -1.796875 L -8.75 -5.046875 L -7.546875 -5.046875 Z M -7.546875 -0.4375 "/>
</g>
<g id="glyph-1-1">
<path d="M 0 -1.46875 L -8.75 -1.46875 L -8.75 -2.703125 L -7.15625 -2.828125 L -7.15625 -2.875 C -7.71875 -3.175781 -8.160156 -3.539062 -8.484375 -3.96875 C -8.804688 -4.394531 -8.96875 -4.859375 -8.96875 -5.359375 C -8.96875 -5.554688 -8.953125 -5.726562 -8.921875 -5.875 C -8.898438 -6.019531 -8.851562 -6.160156 -8.78125 -6.296875 L -7.515625 -5.96875 C -7.554688 -5.84375 -7.582031 -5.722656 -7.59375 -5.609375 C -7.613281 -5.492188 -7.625 -5.347656 -7.625 -5.171875 C -7.625 -4.796875 -7.472656 -4.40625 -7.171875 -4 C -6.878906 -3.601562 -6.363281 -3.253906 -5.625 -2.953125 L 0 -2.953125 Z M 0 -1.46875 "/>
</g>
<g id="glyph-1-2">
<path d="M 0.21875 -5.03125 C 0.21875 -4.238281 0.0351562 -3.523438 -0.328125 -2.890625 C -0.691406 -2.253906 -1.210938 -1.75 -1.890625 -1.375 C -2.578125 -1 -3.40625 -0.8125 -4.375 -0.8125 C -5.320312 -0.8125 -6.140625 -1 -6.828125 -1.375 C -7.515625 -1.757812 -8.039062 -2.253906 -8.40625 -2.859375 C -8.78125 -3.460938 -8.96875 -4.097656 -8.96875 -4.765625 C -8.96875 -5.515625 -8.796875 -6.148438 -8.453125 -6.671875 C -8.117188 -7.191406 -7.644531 -7.582031 -7.03125 -7.84375 C -6.414062 -8.113281 -5.691406 -8.25 -4.859375 -8.25 C -4.710938 -8.25 -4.5625 -8.242188 -4.40625 -8.234375 C -4.257812 -8.222656 -4.113281 -8.203125 -3.96875 -8.171875 L -3.96875 -1.875 L -5.140625 -1.875 L -5.140625 -6.921875 C -5.992188 -6.921875 -6.644531 -6.734375 -7.09375 -6.359375 C -7.539062 -5.992188 -7.765625 -5.472656 -7.765625 -4.796875 C -7.765625 -4.390625 -7.648438 -3.992188 -7.421875 -3.609375 C -7.203125 -3.234375 -6.84375 -2.921875 -6.34375 -2.671875 C -5.851562 -2.421875 -5.203125 -2.296875 -4.390625 -2.296875 C -3.640625 -2.296875 -3.015625 -2.425781 -2.515625 -2.6875 C -2.015625 -2.945312 -1.632812 -3.296875 -1.375 -3.734375 C -1.125 -4.179688 -1 -4.671875 -1 -5.203125 C -1 -5.617188 -1.054688 -6.007812 -1.171875 -6.375 C -1.285156 -6.738281 -1.445312 -7.070312 -1.65625 -7.375 L -0.671875 -7.90625 C -0.410156 -7.53125 -0.195312 -7.101562 -0.03125 -6.625 C 0.132812 -6.15625 0.21875 -5.625 0.21875 -5.03125 Z M 0.21875 -5.03125 "/>
</g>
<g id="glyph-1-3">
<path d="M 3.6875 -7.03125 L 0.578125 -7.03125 L -1 -7.09375 C -0.664062 -6.738281 -0.378906 -6.335938 -0.140625 -5.890625 C 0.0976562 -5.441406 0.21875 -4.960938 0.21875 -4.453125 C 0.21875 -3.359375 -0.179688 -2.484375 -0.984375 -1.828125 C -1.785156 -1.179688 -2.910156 -0.859375 -4.359375 -0.859375 C -5.304688 -0.859375 -6.125 -1.035156 -6.8125 -1.390625 C -7.5 -1.742188 -8.03125 -2.207031 -8.40625 -2.78125 C -8.78125 -3.351562 -8.96875 -3.972656 -8.96875 -4.640625 C -8.96875 -5.148438 -8.878906 -5.597656 -8.703125 -5.984375 C -8.523438 -6.367188 -8.265625 -6.753906 -7.921875 -7.140625 L -7.921875 -7.1875 L -8.75 -7.328125 L -8.75 -8.515625 L 3.6875 -8.515625 Z M -1.03125 -4.78125 C -1.03125 -5.1875 -1.128906 -5.570312 -1.328125 -5.9375 C -1.523438 -6.300781 -1.820312 -6.664062 -2.21875 -7.03125 L -6.8125 -7.03125 C -7.144531 -6.65625 -7.378906 -6.296875 -7.515625 -5.953125 C -7.648438 -5.609375 -7.71875 -5.253906 -7.71875 -4.890625 C -7.71875 -4.421875 -7.578125 -4 -7.296875 -3.625 C -7.023438 -3.25 -6.632812 -2.945312 -6.125 -2.71875 C -5.625 -2.5 -5.039062 -2.390625 -4.375 -2.390625 C -3.332031 -2.390625 -2.515625 -2.597656 -1.921875 -3.015625 C -1.328125 -3.429688 -1.03125 -4.019531 -1.03125 -4.78125 Z M -1.03125 -4.78125 "/>
</g>
<g id="glyph-1-4">
<path d="M 0.21875 -4.46875 C 0.21875 -3.320312 -0.296875 -2.421875 -1.328125 -1.765625 C -2.367188 -1.117188 -3.851562 -0.796875 -5.78125 -0.796875 C -7.707031 -0.796875 -9.175781 -1.117188 -10.1875 -1.765625 C -11.195312 -2.421875 -11.703125 -3.320312 -11.703125 -4.46875 C -11.703125 -5.613281 -11.195312 -6.515625 -10.1875 -7.171875 C -9.175781 -7.828125 -7.707031 -8.15625 -5.78125 -8.15625 C -3.851562 -8.15625 -2.367188 -7.828125 -1.328125 -7.171875 C -0.296875 -6.515625 0.21875 -5.613281 0.21875 -4.46875 Z M -0.984375 -4.46875 C -0.984375 -4.914062 -1.144531 -5.304688 -1.46875 -5.640625 C -1.800781 -5.984375 -2.320312 -6.25 -3.03125 -6.4375 C -3.738281 -6.625 -4.65625 -6.71875 -5.78125 -6.71875 C -6.90625 -6.71875 -7.8125 -6.625 -8.5 -6.4375 C -9.195312 -6.25 -9.703125 -5.984375 -10.015625 -5.640625 C -10.335938 -5.304688 -10.5 -4.914062 -10.5 -4.46875 C -10.5 -4.03125 -10.335938 -3.640625 -10.015625 -3.296875 C -9.703125 -2.960938 -9.195312 -2.703125 -8.5 -2.515625 C -7.8125 -2.328125 -6.90625 -2.234375 -5.78125 -2.234375 C -4.65625 -2.234375 -3.738281 -2.328125 -3.03125 -2.515625 C -2.320312 -2.703125 -1.800781 -2.960938 -1.46875 -3.296875 C -1.144531 -3.640625 -0.984375 -4.03125 -0.984375 -4.46875 Z M -0.984375 -4.46875 "/>
</g>
<g id="glyph-1-5">
<path d="M 0.21875 -2.25 C 0.21875 -1.957031 0.113281 -1.703125 -0.09375 -1.484375 C -0.3125 -1.273438 -0.582031 -1.171875 -0.90625 -1.171875 C -1.25 -1.171875 -1.523438 -1.273438 -1.734375 -1.484375 C -1.941406 -1.703125 -2.046875 -1.957031 -2.046875 -2.25 C -2.046875 -2.539062 -1.941406 -2.789062 -1.734375 -3 C -1.523438 -3.207031 -1.25 -3.3125 -0.90625 -3.3125 C -0.582031 -3.3125 -0.3125 -3.207031 -0.09375 -3 C 0.113281 -2.789062 0.21875 -2.539062 0.21875 -2.25 Z M 0.21875 -2.25 "/>
</g>
<g id="glyph-1-6">
<path d="M 0 -0.71875 L -0.90625 -0.71875 C -2.03125 -1.863281 -3.023438 -2.835938 -3.890625 -3.640625 C -4.765625 -4.453125 -5.554688 -5.066406 -6.265625 -5.484375 C -6.972656 -5.910156 -7.632812 -6.125 -8.25 -6.125 C -8.90625 -6.125 -9.441406 -5.941406 -9.859375 -5.578125 C -10.273438 -5.222656 -10.484375 -4.675781 -10.484375 -3.9375 C -10.484375 -3.457031 -10.351562 -3.015625 -10.09375 -2.609375 C -9.832031 -2.203125 -9.503906 -1.832031 -9.109375 -1.5 L -9.921875 -0.671875 C -10.453125 -1.148438 -10.878906 -1.660156 -11.203125 -2.203125 C -11.535156 -2.742188 -11.703125 -3.382812 -11.703125 -4.125 C -11.703125 -4.832031 -11.5625 -5.441406 -11.28125 -5.953125 C -11 -6.472656 -10.601562 -6.867188 -10.09375 -7.140625 C -9.59375 -7.421875 -9.003906 -7.5625 -8.328125 -7.5625 C -7.585938 -7.5625 -6.847656 -7.351562 -6.109375 -6.9375 C -5.378906 -6.53125 -4.613281 -5.960938 -3.8125 -5.234375 C -3.007812 -4.515625 -2.128906 -3.6875 -1.171875 -2.75 C -1.203125 -3.0625 -1.222656 -3.382812 -1.234375 -3.71875 C -1.253906 -4.0625 -1.265625 -4.382812 -1.265625 -4.6875 L -1.265625 -8.125 L 0 -8.125 Z M 0 -0.71875 "/>
</g>
<g id="glyph-1-7">
<path d="M 0 -3.078125 C -1.082031 -3.128906 -2.070312 -3.226562 -2.96875 -3.375 C -3.875 -3.519531 -4.726562 -3.726562 -5.53125 -4 C -6.332031 -4.28125 -7.113281 -4.625 -7.875 -5.03125 C -8.644531 -5.445312 -9.421875 -5.945312 -10.203125 -6.53125 L -10.203125 -0.796875 L -11.484375 -0.796875 L -11.484375 -8.1875 L -10.578125 -8.1875 C -9.703125 -7.5 -8.863281 -6.929688 -8.0625 -6.484375 C -7.269531 -6.035156 -6.46875 -5.679688 -5.65625 -5.421875 C -4.84375 -5.171875 -3.976562 -4.984375 -3.0625 -4.859375 C -2.144531 -4.742188 -1.125 -4.660156 0 -4.609375 Z M 0 -3.078125 "/>
</g>
</g>
</defs>
<rect x="-70.8" y="-42.5" width="849.6" height="510" fill="rgb(100%, 100%, 100%)" fill-opacity="1"/>
<g fill="rgb(0%, 0%, 0%)" fill-opacity="1">
<use xlink:href="#glyph-0-0" x="199.898438" y="420.111328"/>
<use xlink:href="#glyph-0-1" x="209.898438" y="420.111328"/>
</g>
<g fill="rgb(0%, 0%, 0%)" fill-opacity="1">
<use xlink:href="#glyph-1-0" x="16.712891" y="205.898438"/>
<use xlink:href="#glyph-1-1" x="16.712891" y="200.898438"/>
<use xlink:href="#glyph-1-2" x="16.712891" y="194.898438"/>
<use xlink:href="#glyph-1-3" x="16.712891" y="185.898438"/>
</g>
<path fill-rule="nonzero" fill="rgb(93.72549%, 54.117647%, 38.431373%)" fill-opacity="0.701961" stroke-width="0.75" stroke-linecap="round" stroke-linejoin="round" stroke="rgb(0%, 0%, 0%)" stroke-opacity="1" stroke-miterlimit="10" d="M 103.949219 327.660156 L 112.386719 327.660156 L 112.386719 309.425781 L 103.949219 309.425781 Z M 103.949219 327.660156 "/>
<path fill-rule="nonzero" fill="rgb(93.72549%, 54.117647%, 38.431373%)" fill-opacity="0.701961" stroke-width="0.75" stroke-linecap="round" stroke-linejoin="round" stroke="rgb(0%, 0%, 0%)" stroke-opacity="1" stroke-miterlimit="10" d="M 112.382812 327.660156 L 120.820312 327.660156 L 120.820312 309.425781 L 112.382812 309.425781 Z M 112.382812 327.660156 "/>
<path fill-rule="nonzero" fill="rgb(93.72549%, 54.117647%, 38.431373%)" fill-opacity="0.701961" stroke-width="0.75" stroke-linecap="round" stroke-linejoin="round" stroke="rgb(0%, 0%, 0%)" stroke-opacity="1" stroke-miterlimit="10" d="M 120.820312 327.660156 L 129.257812 327.660156 L 129.257812 309.425781 L 120.820312 309.425781 Z M 120.820312 327.660156 "/>
<path fill="none" stroke-width="0.75" stroke-linecap="round" stroke-linejoin="round" stroke="rgb(0%, 0%, 0%)" stroke-opacity="1" stroke-miterlimit="10" d="M 129.257812 327.660156 L 137.695312 327.660156 Z M 129.257812 327.660156 "/>
<path fill-rule="nonzero" fill="rgb(93.72549%, 54.117647%, 38.431373%)" fill-opacity="0.701961" stroke-width="0.75" stroke-linecap="round" stroke-linejoin="round" stroke="rgb(0%, 0%, 0%)" stroke-opacity="1" stroke-miterlimit="10" d="M 137.691406 327.660156 L 146.128906 327.660156 L 146.128906 291.191406 L 137.691406 291.191406 Z M 137.691406 327.660156 "/>
<path fill-rule="nonzero" fill="rgb(93.72549%, 54.117647%, 38.431373%)" fill-opacity="0.701961" stroke-width="0.75" stroke-linecap="round" stroke-linejoin="round" stroke="rgb(0%, 0%, 0%)" stroke-opacity="1" stroke-miterlimit="10" d="M 146.128906 327.660156 L 154.566406 327.660156 L 154.566406 309.425781 L 146.128906 309.425781 Z M 146.128906 327.660156 "/>
<path fill-rule="nonzero" fill="rgb(93.72549%, 54.117647%, 38.431373%)" fill-opacity="0.701961" stroke-width="0.75" stroke-linecap="round" stroke-linejoin="round" stroke="rgb(0%, 0%, 0%)" stroke-opacity="1" stroke-miterlimit="10" d="M 154.566406 327.660156 L 163.003906 327.660156 L 163.003906 309.425781 L 154.566406 309.425781 Z M 154.566406 327.660156 "/>
<path fill-rule="nonzero" fill="rgb(93.72549%, 54.117647%, 38.431373%)" fill-opacity="0.701961" stroke-width="0.75" stroke-linecap="round" stroke-linejoin="round" stroke="rgb(0%, 0%, 0%)" stroke-opacity="1" stroke-miterlimit="10" d="M 163 327.660156 L 171.4375 327.660156 L 171.4375 309.425781 L 163 309.425781 Z M 163 327.660156 "/>
<path fill-rule="nonzero" fill="rgb(93.72549%, 54.117647%, 38.431373%)" fill-opacity="0.701961" stroke-width="0.75" stroke-linecap="round" stroke-linejoin="round" stroke="rgb(0%, 0%, 0%)" stroke-opacity="1" stroke-miterlimit="10" d="M 171.4375 327.660156 L 179.875 327.660156 L 179.875 272.957031 L 171.4375 272.957031 Z M 171.4375 327.660156 "/>
<path fill-rule="nonzero" fill="rgb(93.72549%, 54.117647%, 38.431373%)" fill-opacity="0.701961" stroke-width="0.75" stroke-linecap="round" stroke-linejoin="round" stroke="rgb(0%, 0%, 0%)" stroke-opacity="1" stroke-miterlimit="10" d="M 179.875 327.660156 L 188.3125 327.660156 L 188.3125 272.957031 L 179.875 272.957031 Z M 179.875 327.660156 "/>
<path fill-rule="nonzero" fill="rgb(93.72549%, 54.117647%, 38.431373%)" fill-opacity="0.701961" stroke-width="0.75" stroke-linecap="round" stroke-linejoin="round" stroke="rgb(0%, 0%, 0%)" stroke-opacity="1" stroke-miterlimit="10" d="M 188.308594 327.660156 L 196.746094 327.660156 L 196.746094 236.488281 L 188.308594 236.488281 Z M 188.308594 327.660156 "/>
<path fill-rule="nonzero" fill="rgb(93.72549%, 54.117647%, 38.431373%)" fill-opacity="0.701961" stroke-width="0.75" stroke-linecap="round" stroke-linejoin="round" stroke="rgb(0%, 0%, 0%)" stroke-opacity="1" stroke-miterlimit="10" d="M 196.746094 327.660156 L 205.183594 327.660156 L 205.183594 163.550781 L 196.746094 163.550781 Z M 196.746094 327.660156 "/>
<path fill-rule="nonzero" fill="rgb(93.72549%, 54.117647%, 38.431373%)" fill-opacity="0.701961" stroke-width="0.75" stroke-linecap="round" stroke-linejoin="round" stroke="rgb(0%, 0%, 0%)" stroke-opacity="1" stroke-miterlimit="10" d="M 205.183594 327.660156 L 213.621094 327.660156 L 213.621094 163.550781 L 205.183594 163.550781 Z M 205.183594 327.660156 "/>
<path fill-rule="nonzero" fill="rgb(93.72549%, 54.117647%, 38.431373%)" fill-opacity="0.701961" stroke-width="0.75" stroke-linecap="round" stroke-linejoin="round" stroke="rgb(0%, 0%, 0%)" stroke-opacity="1" stroke-miterlimit="10" d="M 213.617188 327.660156 L 222.054688 327.660156 L 222.054688 236.488281 L 213.617188 236.488281 Z M 213.617188 327.660156 "/>
<path fill-rule="nonzero" fill="rgb(93.72549%, 54.117647%, 38.431373%)" fill-opacity="0.701961" stroke-width="0.75" stroke-linecap="round" stroke-linejoin="round" stroke="rgb(0%, 0%, 0%)" stroke-opacity="1" stroke-miterlimit="10" d="M 222.054688 327.660156 L 230.492188 327.660156 L 230.492188 254.722656 L 222.054688 254.722656 Z M 222.054688 327.660156 "/>
<path fill-rule="nonzero" fill="rgb(93.72549%, 54.117647%, 38.431373%)" fill-opacity="0.701961" stroke-width="0.75" stroke-linecap="round" stroke-linejoin="round" stroke="rgb(0%, 0%, 0%)" stroke-opacity="1" stroke-miterlimit="10" d="M 230.492188 327.660156 L 238.929688 327.660156 L 238.929688 291.191406 L 230.492188 291.191406 Z M 230.492188 327.660156 "/>
<path fill="none" stroke-width="0.75" stroke-linecap="round" stroke-linejoin="round" stroke="rgb(0%, 0%, 0%)" stroke-opacity="1" stroke-miterlimit="10" d="M 238.925781 327.660156 L 247.363281 327.660156 Z M 238.925781 327.660156 "/>
<path fill-rule="nonzero" fill="rgb(93.72549%, 54.117647%, 38.431373%)" fill-opacity="0.701961" stroke-width="0.75" stroke-linecap="round" stroke-linejoin="round" stroke="rgb(0%, 0%, 0%)" stroke-opacity="1" stroke-miterlimit="10" d="M 247.363281 327.660156 L 255.800781 327.660156 L 255.800781 309.425781 L 247.363281 309.425781 Z M 247.363281 327.660156 "/>
<path fill="none" stroke-width="0.75" stroke-linecap="round" stroke-linejoin="round" stroke="rgb(0%, 0%, 0%)" stroke-opacity="1" stroke-miterlimit="10" d="M 255.800781 327.660156 L 264.238281 327.660156 Z M 255.800781 327.660156 "/>
<path fill-rule="nonzero" fill="rgb(93.72549%, 54.117647%, 38.431373%)" fill-opacity="0.701961" stroke-width="0.75" stroke-linecap="round" stroke-linejoin="round" stroke="rgb(0%, 0%, 0%)" stroke-opacity="1" stroke-miterlimit="10" d="M 264.234375 327.660156 L 272.671875 327.660156 L 272.671875 309.425781 L 264.234375 309.425781 Z M 264.234375 327.660156 "/>
<path fill="none" stroke-width="0.75" stroke-linecap="round" stroke-linejoin="round" stroke="rgb(0%, 0%, 0%)" stroke-opacity="1" stroke-miterlimit="10" d="M 95.511719 338.601562 L 323.289062 338.601562 "/>
<path fill="none" stroke-width="0.75" stroke-linecap="round" stroke-linejoin="round" stroke="rgb(0%, 0%, 0%)" stroke-opacity="1" stroke-miterlimit="10" d="M 95.511719 338.601562 L 95.511719 349.398438 "/>
<path fill="none" stroke-width="0.75" stroke-linecap="round" stroke-linejoin="round" stroke="rgb(0%, 0%, 0%)" stroke-opacity="1" stroke-miterlimit="10" d="M 323.289062 338.601562 L 323.289062 349.398438 "/>
<g fill="rgb(0%, 0%, 0%)" fill-opacity="1">
<use xlink:href="#glyph-1-4" x="100.943359" y="382.199219"/>
<use xlink:href="#glyph-1-5" x="100.943359" y="373.199219"/>
<use xlink:href="#glyph-1-4" x="100.943359" y="369.199219"/>
</g>
<g fill="rgb(0%, 0%, 0%)" fill-opacity="1">
<use xlink:href="#glyph-1-6" x="328.720703" y="382.199219"/>
<use xlink:href="#glyph-1-5" x="328.720703" y="373.199219"/>
<use xlink:href="#glyph-1-7" x="328.720703" y="369.199219"/>
</g>
<path fill="none" stroke-width="0.75" stroke-linecap="round" stroke-linejoin="round" stroke="rgb(0%, 0%, 0%)" stroke-opacity="1" stroke-miterlimit="10" d="M 86.398438 327.660156 L 86.398438 54.140625 "/>
<path fill="none" stroke-width="0.75" stroke-linecap="round" stroke-linejoin="round" stroke="rgb(0%, 0%, 0%)" stroke-opacity="1" stroke-miterlimit="10" d="M 86.398438 327.660156 L 75.601562 327.660156 "/>
<path fill="none" stroke-width="0.75" stroke-linecap="round" stroke-linejoin="round" stroke="rgb(0%, 0%, 0%)" stroke-opacity="1" stroke-miterlimit="10" d="M 86.398438 236.488281 L 75.601562 236.488281 "/>
<path fill="none" stroke-width="0.75" stroke-linecap="round" stroke-linejoin="round" stroke="rgb(0%, 0%, 0%)" stroke-opacity="1" stroke-miterlimit="10" d="M 86.398438 145.3125 L 75.601562 145.3125 "/>
<path fill="none" stroke-width="0.75" stroke-linecap="round" stroke-linejoin="round" stroke="rgb(0%, 0%, 0%)" stroke-opacity="1" stroke-miterlimit="10" d="M 86.398438 54.140625 L 75.601562 54.140625 "/>
<g fill="rgb(0%, 0%, 0%)" fill-opacity="1">
<use xlink:href="#glyph-0-2" x="55.800781" y="333.091797"/>
</g>
<g fill="rgb(0%, 0%, 0%)" fill-opacity="1">
<use xlink:href="#glyph-0-3" x="55.800781" y="241.919922"/>
</g>
<g fill="rgb(0%, 0%, 0%)" fill-opacity="1">
<use xlink:href="#glyph-0-4" x="46.800781" y="150.744141"/>
<use xlink:href="#glyph-0-2" x="55.800781" y="150.744141"/>
</g>
<g fill="rgb(0%, 0%, 0%)" fill-opacity="1">
<use xlink:href="#glyph-0-4" x="46.800781" y="59.572266"/>
<use xlink:href="#glyph-0-3" x="55.800781" y="59.572266"/>
</g>
<g fill="rgb(0%, 0%, 0%)" fill-opacity="1">
<use xlink:href="#glyph-0-5" x="1" y="12.630859"/>
</g>
<path fill-rule="nonzero" fill="rgb(93.72549%, 54.117647%, 38.431373%)" fill-opacity="0.701961" stroke-width="0.75" stroke-linecap="round" stroke-linejoin="round" stroke="rgb(0%, 0%, 0%)" stroke-opacity="1" stroke-miterlimit="10" d="M 234.140625 59.398438 L 247.101562 59.398438 L 247.101562 70.199219 L 234.140625 70.199219 Z M 234.140625 59.398438 "/>
<path fill-rule="nonzero" fill="rgb(60%, 60%, 60%)" fill-opacity="0.701961" stroke-width="0.75" stroke-linecap="round" stroke-linejoin="round" stroke="rgb(0%, 0%, 0%)" stroke-opacity="1" stroke-miterlimit="10" d="M 234.140625 81 L 247.101562 81 L 247.101562 91.800781 L 234.140625 91.800781 Z M 234.140625 81 "/>
<g fill="rgb(0%, 0%, 0%)" fill-opacity="1">
<use xlink:href="#glyph-0-6" x="263.300781" y="70.232422"/>
<use xlink:href="#glyph-0-7" x="272.300781" y="70.232422"/>
<use xlink:href="#glyph-0-8" x="278.300781" y="70.232422"/>
<use xlink:href="#glyph-0-9" x="287.300781" y="70.232422"/>
<use xlink:href="#glyph-0-10" x="297.300781" y="70.232422"/>
<use xlink:href="#glyph-0-11" x="302.300781" y="70.232422"/>
</g>
<g fill="rgb(0%, 0%, 0%)" fill-opacity="1">
<use xlink:href="#glyph-0-12" x="263.300781" y="91.830078"/>
<use xlink:href="#glyph-0-8" x="272.300781" y="91.830078"/>
<use xlink:href="#glyph-0-13" x="281.300781" y="91.830078"/>
<use xlink:href="#glyph-0-14" x="287.300781" y="91.830078"/>
<use xlink:href="#glyph-0-8" x="291.300781" y="91.830078"/>
<use xlink:href="#glyph-0-9" x="300.300781" y="91.830078"/>
<use xlink:href="#glyph-0-10" x="310.300781" y="91.830078"/>
<use xlink:href="#glyph-0-11" x="315.300781" y="91.830078"/>
</g>
<path fill-rule="nonzero" fill="rgb(60%, 60%, 60%)" fill-opacity="0.701961" stroke-width="0.75" stroke-linecap="round" stroke-linejoin="round" stroke="rgb(0%, 0%, 0%)" stroke-opacity="1" stroke-miterlimit="10" d="M 137.691406 327.660156 L 146.128906 327.660156 L 146.128906 272.957031 L 137.691406 272.957031 Z M 137.691406 327.660156 "/>
<path fill="none" stroke-width="0.75" stroke-linecap="round" stroke-linejoin="round" stroke="rgb(0%, 0%, 0%)" stroke-opacity="1" stroke-miterlimit="10" d="M 146.128906 327.660156 L 154.566406 327.660156 Z M 146.128906 327.660156 "/>
<path fill-rule="nonzero" fill="rgb(60%, 60%, 60%)" fill-opacity="0.701961" stroke-width="0.75" stroke-linecap="round" stroke-linejoin="round" stroke="rgb(0%, 0%, 0%)" stroke-opacity="1" stroke-miterlimit="10" d="M 154.566406 327.660156 L 163.003906 327.660156 L 163.003906 309.425781 L 154.566406 309.425781 Z M 154.566406 327.660156 "/>
<path fill-rule="nonzero" fill="rgb(60%, 60%, 60%)" fill-opacity="0.701961" stroke-width="0.75" stroke-linecap="round" stroke-linejoin="round" stroke="rgb(0%, 0%, 0%)" stroke-opacity="1" stroke-miterlimit="10" d="M 163 327.660156 L 171.4375 327.660156 L 171.4375 272.957031 L 163 272.957031 Z M 163 327.660156 "/>
<path fill="none" stroke-width="0.75" stroke-linecap="round" stroke-linejoin="round" stroke="rgb(0%, 0%, 0%)" stroke-opacity="1" stroke-miterlimit="10" d="M 171.4375 327.660156 L 179.875 327.660156 Z M 171.4375 327.660156 "/>
<path fill-rule="nonzero" fill="rgb(60%, 60%, 60%)" fill-opacity="0.701961" stroke-width="0.75" stroke-linecap="round" stroke-linejoin="round" stroke="rgb(0%, 0%, 0%)" stroke-opacity="1" stroke-miterlimit="10" d="M 179.875 327.660156 L 188.3125 327.660156 L 188.3125 309.425781 L 179.875 309.425781 Z M 179.875 327.660156 "/>
<path fill-rule="nonzero" fill="rgb(60%, 60%, 60%)" fill-opacity="0.701961" stroke-width="0.75" stroke-linecap="round" stroke-linejoin="round" stroke="rgb(0%, 0%, 0%)" stroke-opacity="1" stroke-miterlimit="10" d="M 188.308594 327.660156 L 196.746094 327.660156 L 196.746094 254.722656 L 188.308594 254.722656 Z M 188.308594 327.660156 "/>
<path fill-rule="nonzero" fill="rgb(60%, 60%, 60%)" fill-opacity="0.701961" stroke-width="0.75" stroke-linecap="round" stroke-linejoin="round" stroke="rgb(0%, 0%, 0%)" stroke-opacity="1" stroke-miterlimit="10" d="M 196.746094 327.660156 L 205.183594 327.660156 L 205.183594 254.722656 L 196.746094 254.722656 Z M 196.746094 327.660156 "/>
<path fill-rule="nonzero" fill="rgb(60%, 60%, 60%)" fill-opacity="0.701961" stroke-width="0.75" stroke-linecap="round" stroke-linejoin="round" stroke="rgb(0%, 0%, 0%)" stroke-opacity="1" stroke-miterlimit="10" d="M 205.183594 327.660156 L 213.621094 327.660156 L 213.621094 145.316406 L 205.183594 145.316406 Z M 205.183594 327.660156 "/>
<path fill-rule="nonzero" fill="rgb(60%, 60%, 60%)" fill-opacity="0.701961" stroke-width="0.75" stroke-linecap="round" stroke-linejoin="round" stroke="rgb(0%, 0%, 0%)" stroke-opacity="1" stroke-miterlimit="10" d="M 213.617188 327.660156 L 222.054688 327.660156 L 222.054688 218.253906 L 213.617188 218.253906 Z M 213.617188 327.660156 "/>
<path fill-rule="nonzero" fill="rgb(60%, 60%, 60%)" fill-opacity="0.701961" stroke-width="0.75" stroke-linecap="round" stroke-linejoin="round" stroke="rgb(0%, 0%, 0%)" stroke-opacity="1" stroke-miterlimit="10" d="M 222.054688 327.660156 L 230.492188 327.660156 L 230.492188 291.191406 L 222.054688 291.191406 Z M 222.054688 327.660156 "/>
<path fill-rule="nonzero" fill="rgb(60%, 60%, 60%)" fill-opacity="0.701961" stroke-width="0.75" stroke-linecap="round" stroke-linejoin="round" stroke="rgb(0%, 0%, 0%)" stroke-opacity="1" stroke-miterlimit="10" d="M 230.492188 327.660156 L 238.929688 327.660156 L 238.929688 291.191406 L 230.492188 291.191406 Z M 230.492188 327.660156 "/>
<path fill-rule="nonzero" fill="rgb(60%, 60%, 60%)" fill-opacity="0.701961" stroke-width="0.75" stroke-linecap="round" stroke-linejoin="round" stroke="rgb(0%, 0%, 0%)" stroke-opacity="1" stroke-miterlimit="10" d="M 238.925781 327.660156 L 247.363281 327.660156 L 247.363281 272.957031 L 238.925781 272.957031 Z M 238.925781 327.660156 "/>
<path fill-rule="nonzero" fill="rgb(60%, 60%, 60%)" fill-opacity="0.701961" stroke-width="0.75" stroke-linecap="round" stroke-linejoin="round" stroke="rgb(0%, 0%, 0%)" stroke-opacity="1" stroke-miterlimit="10" d="M 247.363281 327.660156 L 255.800781 327.660156 L 255.800781 291.191406 L 247.363281 291.191406 Z M 247.363281 327.660156 "/>
<path fill-rule="nonzero" fill="rgb(60%, 60%, 60%)" fill-opacity="0.701961" stroke-width="0.75" stroke-linecap="round" stroke-linejoin="round" stroke="rgb(0%, 0%, 0%)" stroke-opacity="1" stroke-miterlimit="10" d="M 255.800781 327.660156 L 264.238281 327.660156 L 264.238281 272.957031 L 255.800781 272.957031 Z M 255.800781 327.660156 "/>
<path fill-rule="nonzero" fill="rgb(60%, 60%, 60%)" fill-opacity="0.701961" stroke-width="0.75" stroke-linecap="round" stroke-linejoin="round" stroke="rgb(0%, 0%, 0%)" stroke-opacity="1" stroke-miterlimit="10" d="M 264.234375 327.660156 L 272.671875 327.660156 L 272.671875 272.957031 L 264.234375 272.957031 Z M 264.234375 327.660156 "/>
<path fill-rule="nonzero" fill="rgb(60%, 60%, 60%)" fill-opacity="0.701961" stroke-width="0.75" stroke-linecap="round" stroke-linejoin="round" stroke="rgb(0%, 0%, 0%)" stroke-opacity="1" stroke-miterlimit="10" d="M 272.671875 327.660156 L 281.109375 327.660156 L 281.109375 272.957031 L 272.671875 272.957031 Z M 272.671875 327.660156 "/>
<g fill="rgb(0%, 0%, 0%)" fill-opacity="1">
<use xlink:href="#glyph-0-0" x="553.898438" y="420.111328"/>
<use xlink:href="#glyph-0-1" x="563.898438" y="420.111328"/>
</g>
<path fill-rule="nonzero" fill="rgb(93.72549%, 54.117647%, 38.431373%)" fill-opacity="0.701961" stroke-width="0.75" stroke-linecap="round" stroke-linejoin="round" stroke="rgb(0%, 0%, 0%)" stroke-opacity="1" stroke-miterlimit="10" d="M 457.949219 327.660156 L 466.386719 327.660156 L 466.386719 309.425781 L 457.949219 309.425781 Z M 457.949219 327.660156 "/>
<path fill="none" stroke-width="0.75" stroke-linecap="round" stroke-linejoin="round" stroke="rgb(0%, 0%, 0%)" stroke-opacity="1" stroke-miterlimit="10" d="M 466.382812 327.660156 L 474.820312 327.660156 Z M 466.382812 327.660156 "/>
<path fill="none" stroke-width="0.75" stroke-linecap="round" stroke-linejoin="round" stroke="rgb(0%, 0%, 0%)" stroke-opacity="1" stroke-miterlimit="10" d="M 474.820312 327.660156 L 483.257812 327.660156 Z M 474.820312 327.660156 "/>
<path fill-rule="nonzero" fill="rgb(93.72549%, 54.117647%, 38.431373%)" fill-opacity="0.701961" stroke-width="0.75" stroke-linecap="round" stroke-linejoin="round" stroke="rgb(0%, 0%, 0%)" stroke-opacity="1" stroke-miterlimit="10" d="M 483.257812 327.660156 L 491.695312 327.660156 L 491.695312 309.425781 L 483.257812 309.425781 Z M 483.257812 327.660156 "/>
<path fill="none" stroke-width="0.75" stroke-linecap="round" stroke-linejoin="round" stroke="rgb(0%, 0%, 0%)" stroke-opacity="1" stroke-miterlimit="10" d="M 491.691406 327.660156 L 500.128906 327.660156 Z M 491.691406 327.660156 "/>
<path fill-rule="nonzero" fill="rgb(93.72549%, 54.117647%, 38.431373%)" fill-opacity="0.701961" stroke-width="0.75" stroke-linecap="round" stroke-linejoin="round" stroke="rgb(0%, 0%, 0%)" stroke-opacity="1" stroke-miterlimit="10" d="M 500.128906 327.660156 L 508.566406 327.660156 L 508.566406 291.191406 L 500.128906 291.191406 Z M 500.128906 327.660156 "/>
<path fill-rule="nonzero" fill="rgb(93.72549%, 54.117647%, 38.431373%)" fill-opacity="0.701961" stroke-width="0.75" stroke-linecap="round" stroke-linejoin="round" stroke="rgb(0%, 0%, 0%)" stroke-opacity="1" stroke-miterlimit="10" d="M 508.566406 327.660156 L 517.003906 327.660156 L 517.003906 291.191406 L 508.566406 291.191406 Z M 508.566406 327.660156 "/>
<path fill="none" stroke-width="0.75" stroke-linecap="round" stroke-linejoin="round" stroke="rgb(0%, 0%, 0%)" stroke-opacity="1" stroke-miterlimit="10" d="M 517 327.660156 L 525.4375 327.660156 Z M 517 327.660156 "/>
<path fill="none" stroke-width="0.75" stroke-linecap="round" stroke-linejoin="round" stroke="rgb(0%, 0%, 0%)" stroke-opacity="1" stroke-miterlimit="10" d="M 525.4375 327.660156 L 533.875 327.660156 Z M 525.4375 327.660156 "/>
<path fill-rule="nonzero" fill="rgb(93.72549%, 54.117647%, 38.431373%)" fill-opacity="0.701961" stroke-width="0.75" stroke-linecap="round" stroke-linejoin="round" stroke="rgb(0%, 0%, 0%)" stroke-opacity="1" stroke-miterlimit="10" d="M 533.875 327.660156 L 542.3125 327.660156 L 542.3125 272.957031 L 533.875 272.957031 Z M 533.875 327.660156 "/>
<path fill-rule="nonzero" fill="rgb(93.72549%, 54.117647%, 38.431373%)" fill-opacity="0.701961" stroke-width="0.75" stroke-linecap="round" stroke-linejoin="round" stroke="rgb(0%, 0%, 0%)" stroke-opacity="1" stroke-miterlimit="10" d="M 542.308594 327.660156 L 550.746094 327.660156 L 550.746094 181.785156 L 542.308594 181.785156 Z M 542.308594 327.660156 "/>
<path fill-rule="nonzero" fill="rgb(93.72549%, 54.117647%, 38.431373%)" fill-opacity="0.701961" stroke-width="0.75" stroke-linecap="round" stroke-linejoin="round" stroke="rgb(0%, 0%, 0%)" stroke-opacity="1" stroke-miterlimit="10" d="M 550.746094 327.660156 L 559.183594 327.660156 L 559.183594 181.785156 L 550.746094 181.785156 Z M 550.746094 327.660156 "/>
<path fill-rule="nonzero" fill="rgb(93.72549%, 54.117647%, 38.431373%)" fill-opacity="0.701961" stroke-width="0.75" stroke-linecap="round" stroke-linejoin="round" stroke="rgb(0%, 0%, 0%)" stroke-opacity="1" stroke-miterlimit="10" d="M 559.183594 327.660156 L 567.621094 327.660156 L 567.621094 72.375 L 559.183594 72.375 Z M 559.183594 327.660156 "/>
<path fill-rule="nonzero" fill="rgb(93.72549%, 54.117647%, 38.431373%)" fill-opacity="0.701961" stroke-width="0.75" stroke-linecap="round" stroke-linejoin="round" stroke="rgb(0%, 0%, 0%)" stroke-opacity="1" stroke-miterlimit="10" d="M 567.617188 327.660156 L 576.054688 327.660156 L 576.054688 291.191406 L 567.617188 291.191406 Z M 567.617188 327.660156 "/>
<path fill-rule="nonzero" fill="rgb(93.72549%, 54.117647%, 38.431373%)" fill-opacity="0.701961" stroke-width="0.75" stroke-linecap="round" stroke-linejoin="round" stroke="rgb(0%, 0%, 0%)" stroke-opacity="1" stroke-miterlimit="10" d="M 576.054688 327.660156 L 584.492188 327.660156 L 584.492188 309.425781 L 576.054688 309.425781 Z M 576.054688 327.660156 "/>
<path fill-rule="nonzero" fill="rgb(93.72549%, 54.117647%, 38.431373%)" fill-opacity="0.701961" stroke-width="0.75" stroke-linecap="round" stroke-linejoin="round" stroke="rgb(0%, 0%, 0%)" stroke-opacity="1" stroke-miterlimit="10" d="M 584.492188 327.660156 L 592.929688 327.660156 L 592.929688 291.191406 L 584.492188 291.191406 Z M 584.492188 327.660156 "/>
<path fill-rule="nonzero" fill="rgb(93.72549%, 54.117647%, 38.431373%)" fill-opacity="0.701961" stroke-width="0.75" stroke-linecap="round" stroke-linejoin="round" stroke="rgb(0%, 0%, 0%)" stroke-opacity="1" stroke-miterlimit="10" d="M 592.925781 327.660156 L 601.363281 327.660156 L 601.363281 272.957031 L 592.925781 272.957031 Z M 592.925781 327.660156 "/>
<path fill="none" stroke-width="0.75" stroke-linecap="round" stroke-linejoin="round" stroke="rgb(0%, 0%, 0%)" stroke-opacity="1" stroke-miterlimit="10" d="M 601.363281 327.660156 L 609.800781 327.660156 Z M 601.363281 327.660156 "/>
<path fill-rule="nonzero" fill="rgb(93.72549%, 54.117647%, 38.431373%)" fill-opacity="0.701961" stroke-width="0.75" stroke-linecap="round" stroke-linejoin="round" stroke="rgb(0%, 0%, 0%)" stroke-opacity="1" stroke-miterlimit="10" d="M 609.800781 327.660156 L 618.238281 327.660156 L 618.238281 309.425781 L 609.800781 309.425781 Z M 609.800781 327.660156 "/>
<path fill-rule="nonzero" fill="rgb(93.72549%, 54.117647%, 38.431373%)" fill-opacity="0.701961" stroke-width="0.75" stroke-linecap="round" stroke-linejoin="round" stroke="rgb(0%, 0%, 0%)" stroke-opacity="1" stroke-miterlimit="10" d="M 618.234375 327.660156 L 626.671875 327.660156 L 626.671875 291.191406 L 618.234375 291.191406 Z M 618.234375 327.660156 "/>
<path fill="none" stroke-width="0.75" stroke-linecap="round" stroke-linejoin="round" stroke="rgb(0%, 0%, 0%)" stroke-opacity="1" stroke-miterlimit="10" d="M 449.511719 338.601562 L 677.289062 338.601562 "/>
<path fill="none" stroke-width="0.75" stroke-linecap="round" stroke-linejoin="round" stroke="rgb(0%, 0%, 0%)" stroke-opacity="1" stroke-miterlimit="10" d="M 449.511719 338.601562 L 449.511719 349.398438 "/>
<path fill="none" stroke-width="0.75" stroke-linecap="round" stroke-linejoin="round" stroke="rgb(0%, 0%, 0%)" stroke-opacity="1" stroke-miterlimit="10" d="M 677.289062 338.601562 L 677.289062 349.398438 "/>
<g fill="rgb(0%, 0%, 0%)" fill-opacity="1">
<use xlink:href="#glyph-1-4" x="454.943359" y="382.199219"/>
<use xlink:href="#glyph-1-5" x="454.943359" y="373.199219"/>
<use xlink:href="#glyph-1-4" x="454.943359" y="369.199219"/>
</g>
<g fill="rgb(0%, 0%, 0%)" fill-opacity="1">
<use xlink:href="#glyph-1-6" x="682.720703" y="382.199219"/>
<use xlink:href="#glyph-1-5" x="682.720703" y="373.199219"/>
<use xlink:href="#glyph-1-7" x="682.720703" y="369.199219"/>
</g>
<path fill="none" stroke-width="0.75" stroke-linecap="round" stroke-linejoin="round" stroke="rgb(0%, 0%, 0%)" stroke-opacity="1" stroke-miterlimit="10" d="M 440.398438 327.660156 L 440.398438 54.140625 "/>
<path fill="none" stroke-width="0.75" stroke-linecap="round" stroke-linejoin="round" stroke="rgb(0%, 0%, 0%)" stroke-opacity="1" stroke-miterlimit="10" d="M 440.398438 327.660156 L 429.601562 327.660156 "/>
<path fill="none" stroke-width="0.75" stroke-linecap="round" stroke-linejoin="round" stroke="rgb(0%, 0%, 0%)" stroke-opacity="1" stroke-miterlimit="10" d="M 440.398438 236.488281 L 429.601562 236.488281 "/>
<path fill="none" stroke-width="0.75" stroke-linecap="round" stroke-linejoin="round" stroke="rgb(0%, 0%, 0%)" stroke-opacity="1" stroke-miterlimit="10" d="M 440.398438 145.3125 L 429.601562 145.3125 "/>
<path fill="none" stroke-width="0.75" stroke-linecap="round" stroke-linejoin="round" stroke="rgb(0%, 0%, 0%)" stroke-opacity="1" stroke-miterlimit="10" d="M 440.398438 54.140625 L 429.601562 54.140625 "/>
<g fill="rgb(0%, 0%, 0%)" fill-opacity="1">
<use xlink:href="#glyph-0-2" x="409.800781" y="333.091797"/>
</g>
<g fill="rgb(0%, 0%, 0%)" fill-opacity="1">
<use xlink:href="#glyph-0-3" x="409.800781" y="241.919922"/>
</g>
<g fill="rgb(0%, 0%, 0%)" fill-opacity="1">
<use xlink:href="#glyph-0-4" x="400.800781" y="150.744141"/>
<use xlink:href="#glyph-0-2" x="409.800781" y="150.744141"/>
</g>
<g fill="rgb(0%, 0%, 0%)" fill-opacity="1">
<use xlink:href="#glyph-0-4" x="400.800781" y="59.572266"/>
<use xlink:href="#glyph-0-3" x="409.800781" y="59.572266"/>
</g>
<g fill="rgb(0%, 0%, 0%)" fill-opacity="1">
<use xlink:href="#glyph-0-15" x="355.101562" y="12.630859"/>
</g>
<path fill-rule="nonzero" fill="rgb(60%, 60%, 60%)" fill-opacity="0.701961" stroke-width="0.75" stroke-linecap="round" stroke-linejoin="round" stroke="rgb(0%, 0%, 0%)" stroke-opacity="1" stroke-miterlimit="10" d="M 491.691406 327.660156 L 500.128906 327.660156 L 500.128906 309.425781 L 491.691406 309.425781 Z M 491.691406 327.660156 "/>
<path fill-rule="nonzero" fill="rgb(60%, 60%, 60%)" fill-opacity="0.701961" stroke-width="0.75" stroke-linecap="round" stroke-linejoin="round" stroke="rgb(0%, 0%, 0%)" stroke-opacity="1" stroke-miterlimit="10" d="M 500.128906 327.660156 L 508.566406 327.660156 L 508.566406 291.191406 L 500.128906 291.191406 Z M 500.128906 327.660156 "/>
<path fill="none" stroke-width="0.75" stroke-linecap="round" stroke-linejoin="round" stroke="rgb(0%, 0%, 0%)" stroke-opacity="1" stroke-miterlimit="10" d="M 508.566406 327.660156 L 517.003906 327.660156 Z M 508.566406 327.660156 "/>
<path fill-rule="nonzero" fill="rgb(60%, 60%, 60%)" fill-opacity="0.701961" stroke-width="0.75" stroke-linecap="round" stroke-linejoin="round" stroke="rgb(0%, 0%, 0%)" stroke-opacity="1" stroke-miterlimit="10" d="M 517 327.660156 L 525.4375 327.660156 L 525.4375 309.425781 L 517 309.425781 Z M 517 327.660156 "/>
<path fill-rule="nonzero" fill="rgb(60%, 60%, 60%)" fill-opacity="0.701961" stroke-width="0.75" stroke-linecap="round" stroke-linejoin="round" stroke="rgb(0%, 0%, 0%)" stroke-opacity="1" stroke-miterlimit="10" d="M 525.4375 327.660156 L 533.875 327.660156 L 533.875 309.425781 L 525.4375 309.425781 Z M 525.4375 327.660156 "/>
<path fill="none" stroke-width="0.75" stroke-linecap="round" stroke-linejoin="round" stroke="rgb(0%, 0%, 0%)" stroke-opacity="1" stroke-miterlimit="10" d="M 533.875 327.660156 L 542.3125 327.660156 Z M 533.875 327.660156 "/>
<path fill-rule="nonzero" fill="rgb(60%, 60%, 60%)" fill-opacity="0.701961" stroke-width="0.75" stroke-linecap="round" stroke-linejoin="round" stroke="rgb(0%, 0%, 0%)" stroke-opacity="1" stroke-miterlimit="10" d="M 542.308594 327.660156 L 550.746094 327.660156 L 550.746094 236.488281 L 542.308594 236.488281 Z M 542.308594 327.660156 "/>
<path fill-rule="nonzero" fill="rgb(60%, 60%, 60%)" fill-opacity="0.701961" stroke-width="0.75" stroke-linecap="round" stroke-linejoin="round" stroke="rgb(0%, 0%, 0%)" stroke-opacity="1" stroke-miterlimit="10" d="M 550.746094 327.660156 L 559.183594 327.660156 L 559.183594 163.550781 L 550.746094 163.550781 Z M 550.746094 327.660156 "/>
<path fill-rule="nonzero" fill="rgb(60%, 60%, 60%)" fill-opacity="0.701961" stroke-width="0.75" stroke-linecap="round" stroke-linejoin="round" stroke="rgb(0%, 0%, 0%)" stroke-opacity="1" stroke-miterlimit="10" d="M 559.183594 327.660156 L 567.621094 327.660156 L 567.621094 272.957031 L 559.183594 272.957031 Z M 559.183594 327.660156 "/>
<path fill-rule="nonzero" fill="rgb(60%, 60%, 60%)" fill-opacity="0.701961" stroke-width="0.75" stroke-linecap="round" stroke-linejoin="round" stroke="rgb(0%, 0%, 0%)" stroke-opacity="1" stroke-miterlimit="10" d="M 567.617188 327.660156 L 576.054688 327.660156 L 576.054688 272.957031 L 567.617188 272.957031 Z M 567.617188 327.660156 "/>
<path fill-rule="nonzero" fill="rgb(60%, 60%, 60%)" fill-opacity="0.701961" stroke-width="0.75" stroke-linecap="round" stroke-linejoin="round" stroke="rgb(0%, 0%, 0%)" stroke-opacity="1" stroke-miterlimit="10" d="M 576.054688 327.660156 L 584.492188 327.660156 L 584.492188 254.722656 L 576.054688 254.722656 Z M 576.054688 327.660156 "/>
<path fill-rule="nonzero" fill="rgb(60%, 60%, 60%)" fill-opacity="0.701961" stroke-width="0.75" stroke-linecap="round" stroke-linejoin="round" stroke="rgb(0%, 0%, 0%)" stroke-opacity="1" stroke-miterlimit="10" d="M 584.492188 327.660156 L 592.929688 327.660156 L 592.929688 291.191406 L 584.492188 291.191406 Z M 584.492188 327.660156 "/>
<path fill-rule="nonzero" fill="rgb(60%, 60%, 60%)" fill-opacity="0.701961" stroke-width="0.75" stroke-linecap="round" stroke-linejoin="round" stroke="rgb(0%, 0%, 0%)" stroke-opacity="1" stroke-miterlimit="10" d="M 592.925781 327.660156 L 601.363281 327.660156 L 601.363281 272.957031 L 592.925781 272.957031 Z M 592.925781 327.660156 "/>
<path fill-rule="nonzero" fill="rgb(60%, 60%, 60%)" fill-opacity="0.701961" stroke-width="0.75" stroke-linecap="round" stroke-linejoin="round" stroke="rgb(0%, 0%, 0%)" stroke-opacity="1" stroke-miterlimit="10" d="M 601.363281 327.660156 L 609.800781 327.660156 L 609.800781 272.957031 L 601.363281 272.957031 Z M 601.363281 327.660156 "/>
<path fill-rule="nonzero" fill="rgb(60%, 60%, 60%)" fill-opacity="0.701961" stroke-width="0.75" stroke-linecap="round" stroke-linejoin="round" stroke="rgb(0%, 0%, 0%)" stroke-opacity="1" stroke-miterlimit="10" d="M 609.800781 327.660156 L 618.238281 327.660156 L 618.238281 272.957031 L 609.800781 272.957031 Z M 609.800781 327.660156 "/>
<path fill-rule="nonzero" fill="rgb(60%, 60%, 60%)" fill-opacity="0.701961" stroke-width="0.75" stroke-linecap="round" stroke-linejoin="round" stroke="rgb(0%, 0%, 0%)" stroke-opacity="1" stroke-miterlimit="10" d="M 618.234375 327.660156 L 626.671875 327.660156 L 626.671875 254.722656 L 618.234375 254.722656 Z M 618.234375 327.660156 "/>
<path fill-rule="nonzero" fill="rgb(60%, 60%, 60%)" fill-opacity="0.701961" stroke-width="0.75" stroke-linecap="round" stroke-linejoin="round" stroke="rgb(0%, 0%, 0%)" stroke-opacity="1" stroke-miterlimit="10" d="M 626.671875 327.660156 L 635.109375 327.660156 L 635.109375 254.722656 L 626.671875 254.722656 Z M 626.671875 327.660156 "/>
<path fill-rule="nonzero" fill="rgb(60%, 60%, 60%)" fill-opacity="0.701961" stroke-width="0.75" stroke-linecap="round" stroke-linejoin="round" stroke="rgb(0%, 0%, 0%)" stroke-opacity="1" stroke-miterlimit="10" d="M 635.109375 327.660156 L 643.546875 327.660156 L 643.546875 291.191406 L 635.109375 291.191406 Z M 635.109375 327.660156 "/>
</svg>
